<svg xmlns="http://www.w3.org/2000/svg" viewBox="233 3234.385 24.429 33.032">
  <defs>
    <style>
      .cls-1 {
        fill: #f1b02f;
      }
    </style>
  </defs>
  <g id="assistance" transform="translate(233 3234.385)">
    <path id="Path_3315" data-name="Path 3315" class="cls-1" d="M8.671,170.908a.532.532,0,0,1,.531-.531h12.9a.531.531,0,1,1,0,1.062H9.2a.571.571,0,0,1-.531-.531Zm.531,5.2h12.9a.531.531,0,1,0,0-1.062H9.2a.531.531,0,1,0,0,1.062Zm5.576,3.611H9.2a.531.531,0,0,0,0,1.062h5.576a.531.531,0,0,0,0-1.062Zm-.69,4.673H9.2a.531.531,0,0,0,0,1.062h4.833a.532.532,0,0,0,.531-.531.488.488,0,0,0-.478-.531Zm15.242.637a6.777,6.777,0,0,1-6.8,6.8,6.969,6.969,0,0,1-4.567-1.753H5.431a.532.532,0,0,1-.531-.531V164.27a.532.532,0,0,1,.531-.531H10v-1.487a.532.532,0,0,1,.531-.531h2.23v-.053a2.921,2.921,0,0,1,5.842,0v.053h2.23a.5.5,0,0,1,.531.531v1.487H25.93a.532.532,0,0,1,.531.531v15.188a6.793,6.793,0,0,1,2.868,5.576ZM11.113,165.385h9.134V162.73H17.964a.483.483,0,0,1-.425-.212.509.509,0,0,1-.106-.478,1.32,1.32,0,0,0,.053-.425,1.806,1.806,0,0,0-3.611,0,1.32,1.32,0,0,0,.053.425.542.542,0,0,1-.106.478.656.656,0,0,1-.425.212H11.113v2.655Zm-5.1,23.632H17.061a6.773,6.773,0,0,1,5.523-10.728,7.021,7.021,0,0,1,2.815.584V164.8H21.363v1.168a.532.532,0,0,1-.531.531h-10.3a.532.532,0,0,1-.531-.531V164.8H6.015Zm22.252-3.983a5.735,5.735,0,1,0-5.735,5.736,5.745,5.745,0,0,0,5.735-5.736Zm-2.762-2.23-3.293,3.186-2.23-1.806a.531.531,0,1,0-.637.85l2.6,2.071a.755.755,0,0,0,.319.106.574.574,0,0,0,.372-.159l3.664-3.505a.513.513,0,0,0,0-.743.577.577,0,0,0-.8,0Zm0,0" transform="translate(-4.9 -158.8)"/>
  </g>
</svg>
