<svg xmlns="http://www.w3.org/2000/svg" viewBox="228 3165 33.984 30.792">
  <defs>
    <style>
      .cls-1 {
        fill: #f1b02f;
      }
    </style>
  </defs>
  <path id="businnes" class="cls-1" d="M13.017,4.944h1.127V2.19H13.017Zm2.19,0h1.127V1.627H15.207Zm3.88-2.19h1.127V.563H19.088Zm2.19,0H22.4V0H21.278ZM34.484,7.573l-.626-2.629H31.229V6.071h1.127l-3.442,4.694L26.222,8.637,23.469,11.39a1.676,1.676,0,0,0-1.627-1.439h-.125l2.19-3.88H11.515L13.58,9.513,11.7,11.078H.876V12.2h11.2l3.254-2.691,3.38,1L19.9,11.954a.9.9,0,0,1,.188.688,1.3,1.3,0,0,1-.376.626.941.941,0,0,1-1.189-.063L17.4,12.079l-3.129,2.5.313.376a6.57,6.57,0,0,1-1.815,3.88h-.25l-1-.688H.876v1.127H11.2l.814.376a6.854,6.854,0,0,0-1.189,3.254L8.573,20.653.5,28.789l.751.751,7.322-7.322,2.253,2.253a7.229,7.229,0,0,0,6.822,6.321h.313a6.9,6.9,0,0,0,4.944-2,7.2,7.2,0,0,0,.376-9.951,1.666,1.666,0,0,0,.188-.751,1.8,1.8,0,0,0-.438-1.127,1.667,1.667,0,0,0,0-2.253,1.8,1.8,0,0,0,.438-1.127,1.262,1.262,0,0,0-.188-.688l2.941-2.941L29.039,12.2l4.068-5.57.25,1.064ZM22.342,11.578a.561.561,0,0,1-.563.563h-.626a1.645,1.645,0,0,0-.438-.939l-.125-.125h1.189a.456.456,0,0,1,.563.5ZM15.082,8.2l-.688.563-1-1.627H21.9L20.339,9.888h-.626l-.376-.5Zm5.32,5.82a2.033,2.033,0,0,0,.626-.814h.814a.563.563,0,0,1,0,1.127H19.776a1.958,1.958,0,0,0,.626-.313Zm1.94,1.94a.561.561,0,0,1-.563.563h-2.19a.563.563,0,0,1,0-1.127h2.19a.525.525,0,0,1,.563.563Zm0,2.19a.561.561,0,0,1-.563.563h-2.19a.563.563,0,0,1,0-1.127h2.19a.6.6,0,0,1,.563.563Zm-.188,9.888a6.084,6.084,0,0,1-4.444,1.69,6.18,6.18,0,0,1-5.82-5.946,6.051,6.051,0,0,1,1.69-4.318,7.223,7.223,0,0,0,2.128-4.756l1.627-1.314.438.438.188.188a1.669,1.669,0,0,0,.438.876,1.667,1.667,0,0,0,0,2.253,1.667,1.667,0,0,0,0,2.253h-1v1.127h-.25a1.94,1.94,0,1,0,0,3.88h1.627a.814.814,0,1,1,0,1.627H17.148a.828.828,0,0,1-.814-.814v-.25H15.207v.25a1.95,1.95,0,0,0,1.94,1.94h.25v1.127h1.127V27.162h.25a1.94,1.94,0,1,0,0-3.88H17.148a.814.814,0,0,1,0-1.627h1.627a.828.828,0,0,1,.814.814v.25h1.127v-.25a1.95,1.95,0,0,0-1.94-1.94h-.25V19.4a1.8,1.8,0,0,0,1.127.438h2.19a2.25,2.25,0,0,0,.688-.125,5.9,5.9,0,0,1,1.5,4.005,5.971,5.971,0,0,1-1.878,4.318Zm0,0" transform="translate(227.5 3165)"/>
</svg>
