<svg xmlns="http://www.w3.org/2000/svg" viewBox="231 3293.582 27.892 30.481">
  <defs>
    <style>
      .cls-1 {
        fill: #f1b02f;
      }
    </style>
  </defs>
  <path id="creation" class="cls-1" d="M24.277,322.209H21.742v-.863h3.453v5.665h-.917Zm0,6.96h.863V328.2h-.863Zm2.428-8.47v16.886h1.187v3.4H18.667l3.021,6.8H18.019l-2.7-6.15-2.7,6.15H8.956l2.212-4.963H0v-5.233A7.62,7.62,0,0,1,3.83,331v-1.834a5.007,5.007,0,0,1,0-6.474v-2H2.59v-3.4h25.3v3.4H26.705Zm-23.2,5.017A5.262,5.262,0,0,0,6.42,323.5l.809.378a2.584,2.584,0,0,1-.432.593,9.5,9.5,0,0,0,4.855,1.4,4.076,4.076,0,0,0-4.046-4.046A4.132,4.132,0,0,0,3.507,325.716Zm16.832,6.852A2.533,2.533,0,0,1,17.8,335.1H11.977v2.482H25.842V320.7H4.694v1.241a4.762,4.762,0,0,1,2.859-.917,4.95,4.95,0,0,1,4.963,4.963,4.886,4.886,0,0,1-2.158,4.046H17.8A2.467,2.467,0,0,1,20.339,332.568Zm-12.786-2.59a4.151,4.151,0,0,0,3.992-3.237A9.368,9.368,0,0,1,6.2,325.123a7.614,7.614,0,0,1-2.59,1.511A3.96,3.96,0,0,0,7.553,329.978Zm2.1.917h-2.1a6.851,6.851,0,0,0-1.834.27l1.834,2.1,2.1-2.374Zm-4.963-.917v.593a2.629,2.629,0,0,1,.593-.216A5.686,5.686,0,0,0,4.694,329.978Zm7.283,3.776v.486H17.8a1.672,1.672,0,0,0,0-3.345H10.79l-2.805,3.237v3.183H7.121v-3.183L4.8,331.489a6.682,6.682,0,0,0-3.938,6.1v4.37H3.129V337.8h.863v4.154H11.06v-8.2Zm2.644,7.229H12.894l-2.59,5.934h1.726Zm3.075,0H15.969l2.59,5.934h1.726Zm-5.719-2.536v1.672H27.083v-1.672Zm14.728-18.667h.324v-1.672H3.507v1.672h23.2ZM7.121,339.365h.863v-1.133H7.121Zm13.7-13a1.506,1.506,0,0,1-1.079-.432l-2.428,1.4a.918.918,0,0,1,.054.378,1.565,1.565,0,1,1-1.565-1.565,1.506,1.506,0,0,1,1.079.432l2.428-1.4a.918.918,0,0,1-.054-.378,1.565,1.565,0,1,1,3.129,0A1.532,1.532,0,0,1,20.825,326.364Zm-4.37,1.349a.7.7,0,1,0-.7.7A.714.714,0,0,0,16.455,327.712Zm4.37-2.212a.7.7,0,1,0-.7-.7A.714.714,0,0,0,20.825,325.5Zm3.669,7.067A1.565,1.565,0,1,1,22.929,331,1.6,1.6,0,0,1,24.493,332.568Zm-.917,0a.7.7,0,1,0-.7.7A.714.714,0,0,0,23.576,332.568Z" transform="translate(231 2976.282)"/>
</svg>
