<svg xmlns="http://www.w3.org/2000/svg" viewBox="694.004 3291.658 27.234 26.658">
  <defs>
    <style>
      .cls-1 {
        fill: #f1b02f;
      }
    </style>
  </defs>
  <path id="deal-structuring" class="cls-1" d="M556.687,322.447h-3.876v-.786h3.876A1.3,1.3,0,0,1,558,322.971a1.4,1.4,0,0,1-.157.628l-.681-.367a.393.393,0,0,0,.052-.262C557.263,322.657,557,322.447,556.687,322.447Zm-5.971,0h1v-.786h-1Zm-9.9,7.018H554.7v-.786H540.818Zm0,14.35H554.7v-.786H540.818Zm18.488-13.826-1.624,1.624.576.576,2.147-2.147-1.047-1.047-.576.576Zm-1.571,2.671-.576-.576-.524.524.576.576Zm5.5-4.5a2.1,2.1,0,0,1-.628,1.519l-.262.262h0l-.157.157-.419.419h0l-4.818,4.818v11.627h-18.7v-2.723H536V322.971a2.682,2.682,0,0,1,2.671-2.671H556.74a2.678,2.678,0,0,1,.262,5.342v2.985l1.466-1.466.576-.576.262-.262a2.213,2.213,0,0,1,3.09,0l.314.314A2.933,2.933,0,0,1,563.234,328.156Zm-22.73-7.07a2.655,2.655,0,0,1,0,3.771h16.183a1.885,1.885,0,1,0,0-3.771Zm-2.3,3.771h.419a1.885,1.885,0,1,0-1.885-1.885v20.478H538.2V324.856Zm17.964,21.316V336.117l-2.3,2.3h.89v.786h-1.676l-1.047,1.047-1.99.576H554.7v.786H540.818v-.786h6.651l.471-1.624h-7.123v-.786H548.2l.471-1.519.157-.157h-7.961v-.786h8.746l1.624-1.624H540.818v-.786h11.208l1.624-1.624H540.818v-.786h13.617l1.728-1.728v-3.771H539.038v20.53Zm-7.751-5.656,2.671-.786-1.885-1.885Zm12.779-10.527-2.252-2.252-9.375,9.375,2.252,2.252Zm1.257-1.833a1.431,1.431,0,0,0-.419-1l-.314-.314a1.391,1.391,0,0,0-1.938,0l-.262.262,2.252,2.252.262-.262A1.226,1.226,0,0,0,562.448,328.156Z" transform="translate(158.004 2971.358)"/>
</svg>
