<svg xmlns="http://www.w3.org/2000/svg" viewBox="691 3234.51 29.787 30.267">
  <defs>
    <style>
      .cls-1 {
        fill: #f1b02f;
      }
    </style>
  </defs>
  <path id="investor-matching" class="cls-1" d="M560.668,176.8a3.124,3.124,0,0,0-1.013-.693l.586-.586-.32-.32a2.889,2.889,0,0,0-2.291-.853,2.924,2.924,0,0,0-1.652-.746h0a2.584,2.584,0,0,0-3.57.16l-1.332,1.332a2.184,2.184,0,0,0,.053-.586v-.426H540.046l-4.37,4.37-.693-.693L531.2,181.54l7.727,7.727,3.783-3.783-.693-.693.586-.586h11.3l7.087-7.087Zm-4.156-2.131a2.226,2.226,0,0,0-.8.586l-3.3,3.3H550.49v.853h2.291l3.57-3.57a2.166,2.166,0,0,1,2.664-.266l-.32.32h-.053a3.168,3.168,0,0,0-2.132.853l-3.3,3.3h-4.529a3.185,3.185,0,0,1-2.291-.959l-1.226-1.226h6.075l2.878-2.878A2.189,2.189,0,0,1,556.511,174.666Zm-5.862,1.918.213.053L553.1,174.4a2.03,2.03,0,0,1,1.385-.586,3.023,3.023,0,0,0-.959.639l-2.611,2.611h-.8l.107-.107a2.318,2.318,0,0,0,.32-.373Zm-11.723,11.4-6.448-6.448,2.5-2.5.107.107h0l6.288,6.288h0l.107.107Zm14.6-4.689h-11.3l-.853.853-5.062-5.062,4.156-4.156h9.8a2.319,2.319,0,0,1-.693,1.332,2.634,2.634,0,0,1-1.6.746h-4.9l2.718,2.718a4.039,4.039,0,0,0,2.878,1.226h4.8l3.57-3.57a2.137,2.137,0,0,1,1.492-.639,2.282,2.282,0,0,1,1.172.32Zm-18.7-2.984a1.06,1.06,0,0,0-.853.373,1.258,1.258,0,0,0-.373.853,1.06,1.06,0,0,0,.373.853,1.257,1.257,0,0,0,.853.373,1.06,1.06,0,0,0,.853-.373h0a1.19,1.19,0,0,0,0-1.705A1.135,1.135,0,0,0,534.823,180.315Zm.213,1.439a.4.4,0,0,1-.213.107.277.277,0,0,1-.213-.107.4.4,0,0,1-.107-.213.277.277,0,0,1,.107-.213.4.4,0,0,1,.213-.107.277.277,0,0,1,.213.107A.249.249,0,0,1,535.037,181.754Zm12.682-11.03a3.943,3.943,0,1,0-3.943-3.943A3.934,3.934,0,0,0,547.719,170.723Zm0-7.034a3.091,3.091,0,1,1-3.091,3.091A3.093,3.093,0,0,1,547.719,163.689Zm-.373,4.636a5.924,5.924,0,0,1-.853-.373v-.906a1.046,1.046,0,0,0,.48.48,1.475,1.475,0,0,0,.693.16c.16,0,.32,0,.373-.053q.32-.08.32-.32c0-.107-.053-.16-.16-.213a.757.757,0,0,0-.32-.107l-.426-.107a1.426,1.426,0,0,1-.8-.426.605.605,0,0,1-.16-.426,1,1,0,0,1,.107-.426.906.906,0,0,1,.32-.32,1.6,1.6,0,0,1,.426-.213v-.746h.586v.746a1.265,1.265,0,0,1,.746.266v.746a1.488,1.488,0,0,0-1.066-.426.676.676,0,0,0-.32.053c-.107.053-.16.107-.16.213a.293.293,0,0,0,.16.266.757.757,0,0,0,.32.107c.16.053.266.053.426.107a3.664,3.664,0,0,1,.426.16.754.754,0,0,1,.48.746.763.763,0,0,1-.213.533,1.9,1.9,0,0,1-.8.533v.639h-.586ZM536.209,170.3h1.545v1.439h19.929v-9.911h-1.545v-1.439H554.38V159H534.451v9.911h1.758Zm20.622-7.62v8.153H538.66v-8.153Zm-1.545-1.439v.586H537.754v7.567h-.639v-8.153Zm-19.93,6.767v-8.153h18.171v.48H536.209v7.673h-.853Z" transform="translate(159.8 3075.51)"/>
</svg>
