<svg xmlns="http://www.w3.org/2000/svg" viewBox="691.549 3343.395 30.699 30.613">
  <defs>
    <style>
      .cls-1 {
        fill: #f1b02f;
      }
    </style>
  </defs>
  <path id="partners" class="cls-1" d="M536.331,489.007l3.274,3.274a2,2,0,0,0,.287,2.355,1.867,1.867,0,0,0,1.379.574h.115a2.126,2.126,0,0,0,.574,1.493,1.867,1.867,0,0,0,1.378.574h.115a2.126,2.126,0,0,0,.574,1.493,1.867,1.867,0,0,0,1.378.574h.115a2.126,2.126,0,0,0,.574,1.493,1.941,1.941,0,0,0,2.757,0l.172-.172.172.172a1.941,1.941,0,0,0,2.757,0,2.034,2.034,0,0,0,.574-1.493h.115a1.867,1.867,0,0,0,1.378-.574,2.034,2.034,0,0,0,.574-1.493h.115a1.867,1.867,0,0,0,1.379-.574,2.034,2.034,0,0,0,.574-1.493h.115a1.867,1.867,0,0,0,1.379-.574,1.916,1.916,0,0,0,.287-2.355l3.274-3.274,2.527-2.527a.6.6,0,0,0,0-.747l-7.122-7.122a.6.6,0,0,0-.747,0l-2.412,2.412h-4.021a.41.41,0,0,0-.345.172l-1.149,1.149L547.3,481.2a.5.5,0,0,0-.345-.172h-2.872l-2.412-2.412a.6.6,0,0,0-.747,0l-7.122,7.122a.6.6,0,0,0,0,.747Zm4.308,4.882a.973.973,0,0,1,0-1.321l2.01-2.01a.839.839,0,0,1,1.264,0,.973.973,0,0,1,0,1.321l-2.01,2.01A.9.9,0,0,1,540.639,493.889Zm2.01,2.01a.973.973,0,0,1,0-1.321l2.01-2.01a.838.838,0,0,1,1.264,0,.973.973,0,0,1,0,1.321l-2.01,2.01A.811.811,0,0,1,542.649,495.9Zm2.068,2.068a.973.973,0,0,1,0-1.321l2.01-2.01a.839.839,0,0,1,1.264,0c.057.057.115.115.115.172v.057c0,.057.057.115.057.172v.057a.635.635,0,0,1,0,.459h0a.926.926,0,0,1-.23.4l-2.01,2.01A.832.832,0,0,1,544.717,497.967Zm2.01,2.01a.973.973,0,0,1,0-1.321l2.01-2.01a1.441,1.441,0,0,1,.4-.23h0a.629.629,0,0,1,.459,0h.057c.057,0,.115.057.172.057h.057c.057.057.115.057.172.115s.115.115.115.172v.057c0,.057.057.115.057.172v.057a.634.634,0,0,1,0,.459h0a.435.435,0,0,1-.115.23h0c-.057.057-.057.115-.115.172l-1.551,1.551-.517.517A.75.75,0,0,1,546.727,499.977Zm4.365,0a.973.973,0,0,1-1.321,0l-.172-.172,1.149-1.149c.057-.057.115-.115.115-.172l.172.172A.839.839,0,0,1,551.092,499.977Zm5.456-20.332,6.433,6.433-1.838,1.838-6.433-6.433ZM550.173,482h3.676l6.605,6.605-2.872,2.872-6.433-6.433.632-.632-.747-.747-3.044,3.044a.934.934,0,0,1-1.321-1.321Zm-2.47,1.034-1.666,1.666a1.977,1.977,0,0,0,0,2.757,1.941,1.941,0,0,0,2.757,0l1.666-1.666,6.777,6.777a.934.934,0,0,1-1.321,1.321l-3.561-3.561-.747.747,3.561,3.561a.934.934,0,0,1-1.321,1.321l-3.561-3.561-.747.747L553.1,496.7a.934.934,0,1,1-1.321,1.321l-.459-.459v-.459c0-.115-.057-.23-.057-.345V496.7a1.257,1.257,0,0,0-.172-.287.056.056,0,0,0-.057-.057,1.521,1.521,0,0,0-.287-.345,1.941,1.941,0,0,0-1.091-.517h-.4v-.4h0a1.459,1.459,0,0,0-.115-.4h0l-.172-.345h0c-.057-.115-.172-.23-.23-.345a2.034,2.034,0,0,0-1.493-.574,2.127,2.127,0,0,0-.574-1.493,2.034,2.034,0,0,0-1.493-.574,2.126,2.126,0,0,0-.574-1.493,1.977,1.977,0,0,0-2.757,0l-1.666,1.666-2.872-2.872,6.605-6.605h2.642Zm-6.433-3.389,1.838,1.838-6.375,6.433-1.838-1.838Zm7.179-6.318a.515.515,0,0,0,.517.517,1.544,1.544,0,0,1,1.551,1.551,1.482,1.482,0,0,1-1.034,1.436v1.091H548.45v-1.091a1.558,1.558,0,0,1-1.034-1.436h1.034a.517.517,0,1,0,.517-.517,1.544,1.544,0,0,1-1.551-1.551,1.482,1.482,0,0,1,1.034-1.436V470.8h1.034v1.091a1.558,1.558,0,0,1,1.034,1.436.517.517,0,0,1-1.034,0,.517.517,0,1,0-1.034,0Zm-12.234,6.663h1.034v1.034h-1.034Zm0-2.068h1.034v1.034h-1.034Zm0-2.01h1.034v1.034h-1.034Zm0-2.068h1.034v1.034h-1.034Zm2.01,0h1.034v1.034h-1.034Zm2.068,0h1.034v1.034h-1.034Zm2.01,0h1.034v1.034H542.3Zm2.068,0h1.034v1.034h-1.034Zm16.254,6.146h1.034v1.034h-1.034Zm0-2.068h1.034v1.034h-1.034Zm0-2.01h1.034v1.034h-1.034Zm0-2.068h1.034v1.034h-1.034Zm-2.01,0h1.034v1.034h-1.034Zm-2.068,0h1.034v1.034h-1.034Zm-2.01,0h1.034v1.034h-1.034Zm-2.01,0h1.034v1.034h-1.034Z" transform="translate(157.874 2872.595)"/>
</svg>
