<svg xmlns="http://www.w3.org/2000/svg" viewBox="232 3352.701 26.091 25.934">
  <defs>
    <style>
      .cls-1 {
        fill: #f1b02f;
      }
    </style>
  </defs>
  <path id="project-and-startup" class="cls-1" d="M13.119,493.18a.37.37,0,0,1-.242-.1.459.459,0,0,1-.1-.629l.048-.1a.45.45,0,0,1,.726.532l-.048.1A.6.6,0,0,1,13.119,493.18Zm.29,3.871a.465.465,0,0,0,.194-.581l-1.113-2.081,1.064-1.452a.45.45,0,0,0-.726-.532l-1.21,1.645a.572.572,0,0,0-.048.484l1.258,2.322h0a.493.493,0,0,0,.387.242C13.264,497.147,13.313,497.1,13.409,497.05Zm2.226-.145,1.258-2.274a.445.445,0,0,0-.048-.484l-1.21-1.645a.525.525,0,0,0-.435-.193.478.478,0,0,0-.339.339.546.546,0,0,0,.048.387l1.064,1.451-1.113,2.032a.291.291,0,0,0-.048.194.465.465,0,0,0,.339.435h.1A.665.665,0,0,0,15.635,496.905Zm-1.21-5.274h0l.048-.048,3.1-2.081a.047.047,0,0,0,.048-.048.439.439,0,0,0,.145-.339v-1.6a.493.493,0,0,0-.242-.387.36.36,0,0,0-.435.048l-.726.581a3.165,3.165,0,0,1-2.371.919h-.1a4.885,4.885,0,0,1-2.226-1.113l-.435-.29a.363.363,0,0,0-.435,0,.493.493,0,0,0-.242.387v1.5a.439.439,0,0,0,.145.339.047.047,0,0,1,.048.048l3.145,2.081h0c.1.048.145.1.242.1A.519.519,0,0,0,14.426,491.631Zm-2.9-3.1a4.919,4.919,0,0,0,2.419,1.065h0a4.024,4.024,0,0,0,3-1.113v.435l-2.71,1.79-2.71-1.79v-.387Zm2.032,4.355,1.016-1.355a.519.519,0,0,0,.1-.29V491.2c-.048-.194-.145-.339-.339-.339a.447.447,0,0,0-.435.145l-1.016,1.355h0a.459.459,0,0,0,.1.629.817.817,0,0,0,.242.1A.419.419,0,0,0,13.555,492.889Zm6.338-9.58a6.6,6.6,0,0,1,.726-2.032,2.072,2.072,0,0,0,.29-1.064v-3.193a2.756,2.756,0,0,0-1.6-2.129,1.318,1.318,0,0,0-.145-.919,1.877,1.877,0,0,0-1.306-.871h-6a4.336,4.336,0,0,0-4.355,4.355v2.323a2.532,2.532,0,0,0,.581,1.645,1.915,1.915,0,0,1,.435,1.258.435.435,0,1,0,.871,0v-3a1.807,1.807,0,0,1,1.5-1.5h1.935a3.266,3.266,0,0,0,.677-.1c.387-.1.919-.339,1.355-.484a1.343,1.343,0,0,1,.871,0l2.032.726a1.794,1.794,0,0,1,1.21,1.4v3.629a.427.427,0,0,0,.387.435h.048A.7.7,0,0,0,19.893,483.309Zm-5.371-6.629c-.581.242-1.064.387-1.306.484a1.064,1.064,0,0,1-.387.048H10.845a2.727,2.727,0,0,0-2.274,2.226v1.016a1.941,1.941,0,0,1-.145-.726v-2.322a3.469,3.469,0,0,1,3.484-3.484h5.855a.8.8,0,0,1,.629.387.865.865,0,0,1,0,.629.53.53,0,0,0,0,.387.5.5,0,0,0,.29.242,2.033,2.033,0,0,1,1.4,1.5v3.145a1.289,1.289,0,0,1-.145.581v-1.258a2.753,2.753,0,0,0-1.79-2.177h0l-2.032-.726a1.941,1.941,0,0,0-.726-.145A3.878,3.878,0,0,0,14.522,476.68Zm2.419,11.757a3.106,3.106,0,0,1,.629-.484h.1c.726-.484,1.935-1.742,2.226-4.645v-3.774a2.753,2.753,0,0,0-1.79-2.177h0l-2.032-.726a2.638,2.638,0,0,0-1.5,0c-.581.242-1.064.387-1.306.484a1.066,1.066,0,0,1-.387.048H10.893a2.727,2.727,0,0,0-2.274,2.226v3.871h0c0,.145.1,3.242,2.226,4.645h.048c.145.1.242.194.387.29a5.472,5.472,0,0,0,2.71,1.306h.242A3.448,3.448,0,0,0,16.942,488.438Zm-3,.29a4.886,4.886,0,0,1-2.226-1.113l-.435-.29h-.048c-1.742-1.161-1.839-3.822-1.839-3.919V479.68a1.807,1.807,0,0,1,1.5-1.5h1.935a3.266,3.266,0,0,0,.677-.1c.387-.1.919-.339,1.355-.484a1.343,1.343,0,0,1,.871,0l2.032.726a1.794,1.794,0,0,1,1.21,1.4v3.629c-.242,2.613-1.355,3.629-1.839,3.968a.047.047,0,0,0-.048.048h-.048l-.726.581a3.165,3.165,0,0,1-2.371.919C13.99,488.728,13.942,488.728,13.942,488.728Zm-.435,4.258,1.064-1.452a.687.687,0,0,0,.1-.29.291.291,0,0,0-.048-.194.364.364,0,0,0-.339-.242.44.44,0,0,0-.387.194l-1.064,1.452a.459.459,0,0,0,.1.629.817.817,0,0,0,.242.1A1.212,1.212,0,0,0,13.506,492.986Zm1.016,5.9.1-.1a.452.452,0,0,0,0-.629.412.412,0,0,0-.629,0l-.1.1a.442.442,0,0,0-.1.532h0a.617.617,0,0,0,.339.242h.048A2.366,2.366,0,0,0,14.522,498.889Zm-.242.1c.145,0,.242-.1.339-.242h0a.442.442,0,0,0-.1-.532l-.1-.1a.445.445,0,1,0-.629.629l.1.1a.418.418,0,0,0,.29.145Zm.242-.1h0a.439.439,0,0,0,.145-.339.523.523,0,0,0-.145-.339h0a.37.37,0,0,0-.242-.1.7.7,0,0,0-.339.1h0a.439.439,0,0,0-.145.339.523.523,0,0,0,.145.339h0a.418.418,0,0,0,.29.145Zm-.048-7.258a.49.49,0,0,0,.194-.339h0a.556.556,0,0,0-.29-.435.433.433,0,0,0-.435.726.418.418,0,0,0,.29.145C14.28,491.68,14.377,491.68,14.474,491.631Zm0,0a.4.4,0,0,0,.194-.29.461.461,0,0,0-.1-.339h0a.438.438,0,0,0-.484-.145.423.423,0,0,0-.29.435h0a.493.493,0,0,0,.242.387.291.291,0,0,0,.194.048C14.28,491.68,14.377,491.68,14.474,491.631Zm2.032,3.193a.364.364,0,0,0,.339-.242l2.516-4.6a.943.943,0,0,0,.048-.387.583.583,0,0,0-.242-.242l-1.693-.629h-.048a.425.425,0,0,0-.339.048l-3.145,2.081h0l.242.387-.242-.339a.483.483,0,0,0-.194.242v.193a.367.367,0,0,0,.1.194l2.274,3.1a.44.44,0,0,0,.387.194Zm.919-5.177,1.016.339-1.935,3.532-1.6-2.177Zm-5.177,4.984,1.21-1.645h0l1.064-1.452a.9.9,0,0,0,.1-.339.4.4,0,0,0-.194-.29l-3.145-2.081a.425.425,0,0,0-.339-.048h-.048l-1.693.629a.4.4,0,0,0-.242.242.388.388,0,0,0,.048.387l2.516,4.6c.048.145.194.194.339.242h.048C12.055,494.825,12.2,494.776,12.248,494.631Zm-1.258-4.984,2.564,1.693-.774,1.064h0l-.823,1.113-1.935-3.532Zm15.87,8.806a1.553,1.553,0,0,0,.339-1.306l-.581-3.435a3.1,3.1,0,0,0-1.984-2.371l-5.516-1.984a.464.464,0,0,0-.484.145.445.445,0,0,0-.048.484l1.161,2.322H18.635a.6.6,0,0,0-.387.194.363.363,0,0,0,0,.435l.484.871-4.742,4.306h0l-.1.1a.527.527,0,0,0-.1.532h0a.493.493,0,0,0,.387.242H25.6A1.757,1.757,0,0,0,26.86,498.453ZM19.6,494.244a.442.442,0,0,0,.1-.532l-.29-.532h1.113a.6.6,0,0,0,.387-.194.363.363,0,0,0,0-.435l-.968-1.935,4.451,1.6a2.2,2.2,0,0,1,1.4,1.693l.581,3.435h0a.811.811,0,0,1-.145.581.777.777,0,0,1-.532.242H15.345Zm-4.984,4.5a.563.563,0,0,0-.1-.484h0a.509.509,0,0,0-.629,0h0a.462.462,0,0,0-.1.484.481.481,0,0,0,.387.29h0C14.377,498.986,14.571,498.889,14.619,498.744Zm-.145.145h0c.048-.048.1-.1.1-.145a.442.442,0,0,0-.1-.532.376.376,0,0,0-.387-.1.307.307,0,0,0-.29.242h0a.53.53,0,0,0,.048.532h0a.439.439,0,0,0,.339.145C14.329,498.986,14.426,498.986,14.474,498.889Zm.145-.145a.462.462,0,0,0-.1-.484h0l-.1-.1h0l-4.742-4.306.484-.871a.671.671,0,0,0,0-.435.44.44,0,0,0-.387-.194H8.668l1.113-2.371a.445.445,0,0,0-.048-.484.438.438,0,0,0-.484-.145l-5.516,1.984a3.11,3.11,0,0,0-1.984,2.371l-.581,3.435a1.6,1.6,0,0,0,.339,1.306,1.7,1.7,0,0,0,1.21.581H14.135A.7.7,0,0,0,14.619,498.744ZM7.507,492.5a.671.671,0,0,0,0,.435.44.44,0,0,0,.387.194H9.006l-.29.532a.442.442,0,0,0,.1.532l4.258,3.871H2.813a.693.693,0,0,1-.532-.242.636.636,0,0,1-.145-.581l.581-3.435a2.275,2.275,0,0,1,1.4-1.693l4.451-1.6Zm7.064,6.242,1.016-1.887a.291.291,0,0,0,.048-.194h0v-.048l-.484-3,.435-.629a.178.178,0,0,0,.048-.145.546.546,0,0,0-.048-.387L14.522,491a.438.438,0,0,0-.484-.145.483.483,0,0,0-.242.194l-1.064,1.4-.048.048a.455.455,0,0,0,.048.435l.435.629-.484,3a.614.614,0,0,0,.048.29l1.016,1.839a.493.493,0,0,0,.387.242h0C14.377,498.986,14.522,498.889,14.571,498.744Zm-.435-5.177a.461.461,0,0,0-.1-.339l-.387-.532.532-.726.532.726-.387.532a.7.7,0,0,0-.1.339l.484,3-.581,1.016-.581-1.016Z" transform="translate(230.862 2879.601)"/>
</svg>
