<svg xmlns="http://www.w3.org/2000/svg" viewBox="691.314 3167.363 28.934 28.942">
  <defs>
    <style>
      .cls-1 {
        fill: #f1b02f;
      }
    </style>
  </defs>
  <g id="regular-investor" transform="translate(691.314 3167.363)">
    <path id="Path_3317" data-name="Path 3317" class="cls-1" d="M558.61,28.878a3.78,3.78,0,0,0-3.509-2.358,3.4,3.4,0,0,0-1.668.4V25.657a5.48,5.48,0,0,0-2.416-4.487l-.575-.863s.173-.173.23-.173a4.827,4.827,0,0,0,1.15-2.589,2.18,2.18,0,0,0,0-.863,1.506,1.506,0,0,0-.173-.46,1.641,1.641,0,0,0-.633-.633,3.67,3.67,0,0,0-1.5-1.208,3.377,3.377,0,0,0-4.084,1.035,5.065,5.065,0,0,1-1.611,1.266l-.863.4.863.4a5.061,5.061,0,0,0,.863.288,3.777,3.777,0,0,0,1.208,2.531l-.575.863a5.339,5.339,0,0,0-2.416,4.487v1.9a3.952,3.952,0,0,0-2.531-.978,3.84,3.84,0,0,0-3.509,2.358c-2.186.69-3.566,1.668-3.566,2.876V33.94c0,.863.69,1.611,2.071,2.3a5.62,5.62,0,0,0-.69,2.761v4.027h26.173V39a6.321,6.321,0,0,0-.69-2.761c1.381-.633,2.071-1.438,2.071-2.3V31.812C562.177,30.546,560.8,29.568,558.61,28.878Zm-3.451-1.5a2.934,2.934,0,1,1-2.934,2.934A2.946,2.946,0,0,1,555.159,27.382Zm-4.2-5.235a4.53,4.53,0,0,1,1.726,3.509V27.5c-.057.058-.173.115-.23.23-.345-.058-.748-.058-1.093-.115V25.772H550.5v1.783c-.518,0-1.036-.058-1.553-.058l.4-.4V23.873Zm-2.416,2.013V26.75l-.345.345-.345-.345V24.161h.69ZM548.2,21.8l-.575-.69a2.905,2.905,0,0,0,1.151,0ZM546.415,21l1.266,1.438-.345.575-1.323-1.5Zm-.057-.69Zm3.566.69.345.575-1.323,1.5-.345-.575Zm.057-.69Zm-3.854-4.314a2.579,2.579,0,0,1,3.106-.805,2.854,2.854,0,0,1,1.208,1.035l.115.115.173.058a.563.563,0,0,1,.288.288,1.686,1.686,0,0,1,.057.863,2.121,2.121,0,0,0-.46-.805l-.23-.23-.288.173a4.826,4.826,0,0,1-1.611.575,6.262,6.262,0,0,1-3.394-.23C545.322,16.741,545.783,16.4,546.128,15.993Zm-.633,2.013a7.137,7.137,0,0,0,4.6-.518,7.764,7.764,0,0,1,.46,1.381,2.716,2.716,0,0,1-2.358,1.438A2.682,2.682,0,0,1,545.495,18.006Zm-1.783,7.651a4.359,4.359,0,0,1,1.726-3.509l1.611,1.783v3.221l.4.4a12.512,12.512,0,0,0-1.5.058V25.887h-.863V27.67a9.441,9.441,0,0,0-1.323.115V25.657Zm4.027,2.646c1.438,0,2.819.058,4.084.173a3.82,3.82,0,0,0,1.438,5.12,6.037,6.037,0,0,0-2.358,1.553c-1.035.058-2.071.115-3.164.115s-2.128-.058-3.164-.115a6.036,6.036,0,0,0-2.358-1.553,3.8,3.8,0,0,0,1.9-3.279,3.965,3.965,0,0,0-.46-1.841C544.92,28.36,546.3,28.3,547.738,28.3Zm-7.421-.92a2.934,2.934,0,1,1-2.934,2.934A2.946,2.946,0,0,1,540.318,27.382Zm-3.739,2.474c0,.173-.057.288-.057.46a3.818,3.818,0,0,0,1.9,3.279,4.452,4.452,0,0,0-.92.4c-2.531-.748-3.394-1.611-3.394-2.243C534.105,31.236,534.8,30.546,536.579,29.856Zm-2.473,4.027V33.25a8.613,8.613,0,0,0,2.531,1.323l-.863.863C534.565,34.918,534.105,34.343,534.105,33.882Zm11.1,8.283h-1.5V39.117h-.863v3.049h-5.062V39.117h-.863v3.049h-1.5V38.945a4.889,4.889,0,1,1,9.779,0v3.221Zm4.2-3.221v3.221h-3.394V38.945a3.8,3.8,0,0,0-.057-.805c.575,0,1.151.058,1.726.058s1.151,0,1.726-.058A3.767,3.767,0,0,1,549.406,38.945Zm.288-1.611c-.633,0-1.266.058-1.956.058-.633,0-1.323,0-1.956-.058a5.423,5.423,0,0,0-.575-1.323c.863.058,1.668.058,2.531.058s1.668,0,2.531-.058A4.609,4.609,0,0,0,549.694,37.334Zm10.3,4.832h-1.5V39.117h-.863v3.049H552.57V39.117h-.863v3.049h-1.5V38.945a4.889,4.889,0,1,1,9.779,0v3.221Zm1.381-8.283c0,.4-.46,1.035-1.726,1.553a3.082,3.082,0,0,0-.863-.863,6.928,6.928,0,0,0,2.531-1.323l.058.633ZM557.92,34a4.452,4.452,0,0,0-.92-.4,3.8,3.8,0,0,0,1.9-3.279,1.266,1.266,0,0,0-.058-.46c1.841.69,2.474,1.381,2.474,1.9C561.371,32.387,560.451,33.25,557.92,34Z" transform="translate(-533.3 -14.087)"/>
  </g>
</svg>
