<svg xmlns="http://www.w3.org/2000/svg" viewBox="507 2651.917 29.383 29.383">
  <defs>
    <style>
      .cls-1 {
        fill: #f1b02f;
      }
    </style>
  </defs>
  <path id="Path_3300" data-name="Path 3300" class="cls-1" d="M6.321,12.573A3.126,3.126,0,1,0,3.2,9.447a3.07,3.07,0,0,0,3.126,3.126Zm0-5.21A2.084,2.084,0,1,1,4.237,9.447,2.006,2.006,0,0,1,6.321,7.363Zm0,0,16.741,5.21a3.126,3.126,0,1,0-3.126-3.126,3.113,3.113,0,0,0,3.126,3.126Zm0-5.21a2.084,2.084,0,1,1-2.084,2.084,2.09,2.09,0,0,1,2.084-2.084Zm0,0,5.279,6.252v6.807a1.616,1.616,0,0,1-1.6,1.6V16.254a2.638,2.638,0,0,0-2.64-2.64h-2.57a.548.548,0,0,0-.556.556V17.3H16.81a.548.548,0,0,0-.556.556v1.6H13.129v-1.6a.548.548,0,0,0-.556-.556H8.405V14.17a.548.548,0,0,0-.556-.556H5.279a2.638,2.638,0,0,0-2.64,2.64V22.02a1.616,1.616,0,0,1-1.6-1.6V13.615H0v6.807a2.657,2.657,0,0,0,1.6,2.431v6.53H2.64V23.062H7.919v5.765a.548.548,0,0,0,.556.556h2.64V20.422h7.363v8.891h2.64a.548.548,0,0,0,.556-.556V22.992h5.279v6.321h.834v-6.53a2.7,2.7,0,0,0,1.6-2.431V13.545H28.341ZM10.489,19.38H6.321V16.254H5.279v3.682a.548.548,0,0,0,.556.556H9.516a.548.548,0,0,1,.556.556V28.41H9.03V22.645a.548.548,0,0,0-.556-.556H3.682V16.324a1.616,1.616,0,0,1,1.6-1.6H7.363v3.126a.548.548,0,0,0,.556.556h4.168V19.45h-1.6Zm10.489,2.64a.548.548,0,0,0-.556.556v5.765H19.38V20.978a.548.548,0,0,1,.556-.556h3.682a.548.548,0,0,0,.556-.556V16.185H23.131v3.126H17.366V18.269h4.168a.548.548,0,0,0,.556-.556V14.587h2.084a1.616,1.616,0,0,1,1.6,1.6V21.95H20.978Zm0,0M9.933,5.279v1.6a.522.522,0,0,0,.347.486h.139a.5.5,0,0,0,.417-.208l1.389-1.876h3.959a1.616,1.616,0,0,0,1.6-1.6V1.6a1.616,1.616,0,0,0-1.6-1.6H9.864a1.616,1.616,0,0,0-1.6,1.6V3.682a1.844,1.844,0,0,0,1.667,1.6ZM9.447,1.6A.548.548,0,0,1,10,1.042h6.321a.548.548,0,0,1,.556.556V3.682a.548.548,0,0,1-.556.556H12.156a.5.5,0,0,0-.417.208l-.625.834V4.723a.548.548,0,0,0-.556-.556H10a.548.548,0,0,1-.556-.556Zm0,0,1.042.486h5.279V3.126H10.489ZM14.17,13.129H17.3V14.17H14.17Zm-.556-2.084a1.616,1.616,0,0,0-1.6,1.6v2.084a1.572,1.572,0,0,0,1.6,1.6h4.168a1.616,1.616,0,0,0,1.6-1.6v-.347l.972-1.459a.42.42,0,0,0,0-.556.585.585,0,0,0-.486-.278h-.625a1.567,1.567,0,0,0-1.459-1.042Zm4.723,1.528a.548.548,0,0,0,.556.556h.069l-.486.764a.418.418,0,0,0-.069.278v.556a.548.548,0,0,1-.556.556H13.684a.548.548,0,0,1-.556-.556V12.642a.548.548,0,0,1,.556-.556h4.168a.475.475,0,0,1,.486.486Zm0,0M12.087,8.405h1.042V9.447H12.087Zm2.084,0h1.042V9.447H14.17Zm2.084,0H17.3V9.447H16.254Z" transform="translate(507 2651.917)"/>
</svg>
