<svg xmlns="http://www.w3.org/2000/svg" viewBox="876.993 2746.314 28.265 30.686">
  <defs>
    <style>
      .cls-1 {
        fill: #f1b02f;
      }
    </style>
  </defs>
  <g id="Group_57" data-name="Group 57" transform="translate(876.993 2746.314)">
    <path id="Path_3313" data-name="Path 3313" class="cls-1" d="M16.8,304.371a4.485,4.485,0,1,0-4.485-4.485A4.467,4.467,0,0,0,16.8,304.371Zm0-7.689a3.2,3.2,0,1,1-3.2,3.2A3.191,3.191,0,0,1,16.8,296.682Zm11.534,15.307v-1.21c.071-2.634.071-4.414-1.5-6.265a1.914,1.914,0,1,0-1.709,1.068,2.559,2.559,0,0,0,.783-.142c1.21,1.5,1.21,2.919,1.139,5.34v1.282H25.768v-1.139A3.82,3.82,0,0,0,23.7,307.5a15.241,15.241,0,0,0-6.835-1.851,14.977,14.977,0,0,0-6.835,1.851,3.82,3.82,0,0,0-2.065,3.417v1.139H6.616v-1.282c-.071-2.421-.071-3.845,1.139-5.34a1.408,1.408,0,0,0,.783.142,1.958,1.958,0,1,0-1.709-1.068c-1.638,1.851-1.566,3.631-1.5,6.265v1.21H5.263A2.552,2.552,0,0,0,2.7,314.552v2.563a2.552,2.552,0,0,0,2.563,2.563h.142l1.21,5.909a.684.684,0,0,0,.641.5H7.4a.656.656,0,0,0,.5-.783l-1.139-5.625H26.907L25.768,325.3a.656.656,0,0,0,.5.783h.142a.684.684,0,0,0,.641-.5l1.21-5.909H28.4a2.552,2.552,0,0,0,2.563-2.563v-2.563A2.763,2.763,0,0,0,28.331,311.989Zm-3.2-7.618a.641.641,0,1,1,.641-.641A.638.638,0,0,1,25.127,304.371ZM8.538,303.089a.641.641,0,1,1-.641.641A.638.638,0,0,1,8.538,303.089Zm.57,7.76a2.474,2.474,0,0,1,1.353-2.278,13.9,13.9,0,0,1,6.265-1.709,13.9,13.9,0,0,1,6.265,1.709,2.551,2.551,0,0,1,1.353,2.278v1.139H9.108Zm20.433,6.265A1.276,1.276,0,0,1,28.26,318.4h-23a1.276,1.276,0,0,1-1.282-1.282v-2.563a1.276,1.276,0,0,1,1.282-1.282h23a1.276,1.276,0,0,1,1.282,1.282v2.563Z" transform="translate(-2.7 -295.4)"/>
  </g>
</svg>
