<svg xmlns="http://www.w3.org/2000/svg" viewBox="509 2589.01 25.198 27.09">
  <defs>
    <style>
      .cls-1 {
        fill: #f1b02f;
      }
    </style>
  </defs>
  <path id="Path_3299" data-name="Path 3299" class="cls-1" d="M25.2,15.03a1.846,1.846,0,0,0-1.824-1.824H22.226V11.449h1.013a.581.581,0,0,0,.54-.54V7.666a.581.581,0,0,0-.54-.54h-.473a4.053,4.053,0,1,0-5.54,0h-.473a.581.581,0,0,0-.54.54v3.243a.573.573,0,0,0,.473.54l-5.945,2.432H.54a.581.581,0,0,0-.54.54V26.65a.581.581,0,0,0,.54.54H10.809a.581.581,0,0,0,.54-.54V24.555h6.418v.405A2.249,2.249,0,0,0,20,27.19a1.956,1.956,0,0,0,1.554-.676,2.2,2.2,0,0,0,.676-1.554v-.405a1.885,1.885,0,0,0,1.621-1.824,1.551,1.551,0,0,0-.27-.946,1.746,1.746,0,0,0,.946-1.621,1.551,1.551,0,0,0-.27-.946A1.746,1.746,0,0,0,25.2,17.6a1.846,1.846,0,0,0-.54-1.284h0A1.846,1.846,0,0,0,25.2,15.03Zm-4.053-1.824h-2.3V11.449h2.3v1.756ZM22.7,10.369H17.362V8.139h5.4v2.229ZM19.254,6.991a2.963,2.963,0,0,1-2.229-2.9,2.972,2.972,0,1,1,5.945,0,3.04,3.04,0,0,1-2.229,2.9,1.87,1.87,0,0,1-.608.068h-.2A2.083,2.083,0,0,1,19.254,6.991ZM10.269,26.109H1.081V14.962h9.255l-.068,11.147Zm10.539-.338a1.246,1.246,0,0,1-.811.338,1.184,1.184,0,0,1-1.148-1.148v-.405h2.3v.405A1.07,1.07,0,0,1,20.807,25.771Zm-.135-10a.54.54,0,0,0,0,1.081h2.77a.7.7,0,0,1,.743.743.75.75,0,0,1-.743.743h-2.77a.54.54,0,0,0,0,1.081H22.7a.7.7,0,0,1,.743.743.75.75,0,0,1-.743.743H20.672a.54.54,0,0,0,0,1.081h1.351a.7.7,0,0,1,.743.743.75.75,0,0,1-.743.743H11.349V14.76l6.418-2.635v1.621a.581.581,0,0,0,.54.54h5.067a.7.7,0,0,1,.743.743.75.75,0,0,1-.743.743Z" transform="translate(509 2588.91)"/>
</svg>
