<svg xmlns="http://www.w3.org/2000/svg" viewBox="875 2589 32.252 24.634">
  <defs>
    <style>
      .cls-1 {
        fill: #f1b02f;
      }
    </style>
  </defs>
  <path id="Path_3305" data-name="Path 3305" class="cls-1" d="M14.99,23.634c-.356,0-8.116-.142-10.608-.356a.9.9,0,0,0-.427-.071A5.06,5.06,0,0,1,.609,21.64a8.25,8.25,0,0,1-1.353-3.56A51.387,51.387,0,0,1-1.1,12.6V10.107C-1.029,7.4-.673,4.7-.673,4.7A7.662,7.662,0,0,1,.751,1.065,4.313,4.313,0,0,1,3.955-.5H4.1C8.369-.929,14.919-1,14.99-1c.142,0,6.621.071,10.964.356h.214A4.659,4.659,0,0,1,29.443.922,8.25,8.25,0,0,1,30.8,4.482h0a51.387,51.387,0,0,1,.356,5.482v2.563a49.632,49.632,0,0,1-.356,5.482,7.662,7.662,0,0,1-1.424,3.631A4.546,4.546,0,0,1,26.1,23.207h-.142C21.612,23.634,15.062,23.634,14.99,23.634Zm0-23.566c-.071,0-6.55.071-10.822.356H4.026A3.744,3.744,0,0,0,1.392,1.705,6.887,6.887,0,0,0,.324,4.767a47.131,47.131,0,0,0-.356,5.34V12.6a47.131,47.131,0,0,0,.356,5.34,6.932,6.932,0,0,0,1.068,2.99A3.7,3.7,0,0,0,4.1,22.139c.142,0,.356.071.5.071,2.349.285,10.395.356,10.466.356s6.55,0,10.822-.356h.142A3.586,3.586,0,0,0,28.589,21a7.766,7.766,0,0,0,1.139-3.061,47.131,47.131,0,0,0,.356-5.34V10.107a35.5,35.5,0,0,0-.356-5.34A8.769,8.769,0,0,0,28.66,1.705,4,4,0,0,0,26.026.424h-.214C21.54.139,15.062.068,14.99.068ZM11.217,18.081a.428.428,0,0,1-.285-.071.721.721,0,0,1-.285-.5V5.906a.721.721,0,0,1,.285-.5.431.431,0,0,1,.57,0l10.181,5.981a.721.721,0,0,1,.285.5.721.721,0,0,1-.285.5L11.5,18.081Zm.57-11.249v9.825l8.544-4.77Z" transform="translate(876.1 2590)"/>
</svg>
