<svg xmlns="http://www.w3.org/2000/svg" viewBox="875.969 2684.518 30.176 29.946">
  <defs>
    <style>
      .cls-1 {
        fill: #f1b02f;
      }
    </style>
  </defs>
  <g id="Group_52" data-name="Group 52" transform="translate(875.969 2684.518)">
    <path id="Path_3304" data-name="Path 3304" class="cls-1" d="M8.551,189.73A1.352,1.352,0,0,0,7.2,191.082a1.309,1.309,0,0,0,1.353,1.353A1.309,1.309,0,0,0,9.9,191.082,1.352,1.352,0,0,0,8.551,189.73Zm0,1.78a.41.41,0,0,1-.427-.427.427.427,0,1,1,.427.427Zm11.676,6.408H17.593l-.783-2.492a.39.39,0,0,0-.427-.285.481.481,0,0,0-.427.285l-.783,2.492H12.538a.481.481,0,0,0-.427.285.44.44,0,0,0,.142.5l2.136,1.566-.783,2.492a.472.472,0,0,0,.142.5.431.431,0,0,0,.57,0l2.136-1.566,2.136,1.566a.433.433,0,0,0,.57,0,.44.44,0,0,0,.142-.5l-.783-2.492,2.136-1.566a.44.44,0,0,0,.142-.5C20.583,198.06,20.441,197.917,20.227,197.917Zm-2.634,1.851a.44.44,0,0,0-.142.5l.5,1.5-1.282-.926a.344.344,0,0,0-.5,0l-1.282.926.5-1.5a.44.44,0,0,0-.142-.5l-1.282-.926h1.566a.481.481,0,0,0,.427-.285l.5-1.5.5,1.5a.39.39,0,0,0,.427.285h1.5Zm13.812-1.5a.39.39,0,0,0-.427-.285H28.343L27.56,195.5a.39.39,0,0,0-.427-.285.481.481,0,0,0-.427.285l-.783,2.492H23.288a.481.481,0,0,0-.427.285.44.44,0,0,0,.142.5l2.136,1.566-.783,2.492a.472.472,0,0,0,.142.5.431.431,0,0,0,.57,0l2.136-1.566,2.136,1.566a.433.433,0,0,0,.57,0,.44.44,0,0,0,.142-.5l-.783-2.492,2.136-1.566C31.4,198.629,31.476,198.416,31.4,198.273Zm-3.061,1.5a.44.44,0,0,0-.142.5l.5,1.5-1.282-.926a.344.344,0,0,0-.5,0l-1.282.926.5-1.5a.44.44,0,0,0-.142-.5l-1.282-.926h1.566a.481.481,0,0,0,.427-.285l.5-1.5.5,1.5a.39.39,0,0,0,.427.285H29.7ZM9.476,197.917H6.842l-.783-2.492a.39.39,0,0,0-.427-.285.481.481,0,0,0-.427.285l-.783,2.492H1.716a.481.481,0,0,0-.427.285.44.44,0,0,0,.142.5l2.136,1.566-.783,2.492a.44.44,0,0,0,.142.5.344.344,0,0,0,.5,0l2.136-1.566L7.7,203.257a.433.433,0,0,0,.57,0,.44.44,0,0,0,.142-.5l-.783-2.492L9.761,198.7a.44.44,0,0,0,.142-.5A.481.481,0,0,0,9.476,197.917Zm-2.634,1.851a.44.44,0,0,0-.142.5l.5,1.5-1.282-.926a.344.344,0,0,0-.5,0l-1.282.926.5-1.5a.44.44,0,0,0-.142-.5l-1.282-.926H4.777a.481.481,0,0,0,.427-.285l.5-1.5.5,1.5a.39.39,0,0,0,.427.285H8.195Zm6.977-5.482H25.353a1.99,1.99,0,0,0,1.993-1.993,2.248,2.248,0,0,0-.5-1.353,2.078,2.078,0,0,0,1.139-1.78,2.248,2.248,0,0,0-.5-1.353,2.078,2.078,0,0,0,1.139-1.78,1.891,1.891,0,0,0-.783-1.566,2.1,2.1,0,0,0,.783-1.566,1.99,1.99,0,0,0-1.994-1.993h-7.12a8.342,8.342,0,0,0,.641-2.207c.356-2.349-.142-3.631-.641-4.272a2.288,2.288,0,0,0-1.638-.926.973.973,0,0,0-1.068.926,13.79,13.79,0,0,1-.854,4.058,9.906,9.906,0,0,1-4.628,3.916,1.8,1.8,0,0,0-1.068-.427H6.7a1.611,1.611,0,0,0-1.638,1.638v8.971A1.611,1.611,0,0,0,6.7,194.215h3.631a1.521,1.521,0,0,0,1.21-.57A4.345,4.345,0,0,0,13.819,194.286Zm2.99-15.521a19.363,19.363,0,0,0,.926-4.414v-.142h.071a1.167,1.167,0,0,1,1,.641c.356.5.783,1.566.5,3.631a5.689,5.689,0,0,1-.854,2.492.451.451,0,0,0,.356.712h7.9a1.139,1.139,0,0,1,0,2.278H24.855a.427.427,0,0,0,0,.854h1.851a1.139,1.139,0,0,1,0,2.278H24.855a.427.427,0,0,0,0,.854h1.139a1.139,1.139,0,0,1,0,2.278H24.428a.427.427,0,0,0,0,.854h.926a1.139,1.139,0,0,1,0,2.278H13.819a2.694,2.694,0,0,1-1.851-.57v-9.256a1.212,1.212,0,0,0-.071-.5A10.33,10.33,0,0,0,16.81,178.765Zm-6.479,14.524H6.7a.79.79,0,0,1-.783-.783v-8.971a.79.79,0,0,1,.783-.783h3.631a.808.808,0,0,1,.57.214V193A.647.647,0,0,1,10.331,193.289Z" transform="translate(-1.261 -173.489)"/>
  </g>
</svg>
