<svg xmlns="http://www.w3.org/2000/svg" viewBox="508.489 2789.292 23.928 25.671">
  <defs>
    <style>
      .cls-1 {
        fill: #f1b02f;
      }
    </style>
  </defs>
  <path id="Path_3302" data-name="Path 3302" class="cls-1" d="M22.663,0H3.008A1.254,1.254,0,0,0,1.749,1.259v.07A2.1,2.1,0,0,0,0,3.427a2.109,2.109,0,0,0,1.679,2.1v.49a2.151,2.151,0,0,0,0,4.2v.49A2.187,2.187,0,0,0,0,12.87a2.109,2.109,0,0,0,1.679,2.1v.49a2.151,2.151,0,0,0,0,4.2v.49a2.151,2.151,0,0,0,0,4.2v.07a1.254,1.254,0,0,0,1.259,1.259H22.663a1.254,1.254,0,0,0,1.259-1.259V1.259A1.174,1.174,0,0,0,22.663,0ZM1.679,23.5a1.262,1.262,0,0,1,0-2.378Zm0-4.756a1.262,1.262,0,0,1,0-2.378Zm0-4.687a1.262,1.262,0,0,1,0-2.378Zm0-4.687a1.262,1.262,0,0,1,0-2.378Zm0-4.756A1.219,1.219,0,0,1,.839,3.427a1.219,1.219,0,0,1,.839-1.189ZM6.016,24.831H3.008a.371.371,0,0,1-.42-.42V21.054a1.219,1.219,0,0,1,.839,1.189.371.371,0,0,0,.42.42.371.371,0,0,0,.42-.42,2.109,2.109,0,0,0-1.679-2.1V16.3a1.219,1.219,0,0,1,.839,1.189.371.371,0,0,0,.42.42.371.371,0,0,0,.42-.42,2.109,2.109,0,0,0-1.679-2.1V11.541a1.219,1.219,0,0,1,.839,1.189.371.371,0,0,0,.42.42.371.371,0,0,0,.42-.42,2.109,2.109,0,0,0-1.679-2.1V6.925a1.219,1.219,0,0,1,.839,1.189.371.371,0,0,0,.42.42.371.371,0,0,0,.42-.42,2.109,2.109,0,0,0-1.679-2.1V2.238a1.219,1.219,0,0,1,.839,1.189.371.371,0,0,0,.42.42.371.371,0,0,0,.42-.42,2.109,2.109,0,0,0-1.679-2.1v-.07a.371.371,0,0,1,.42-.42H6.016Zm17.137-.42a.371.371,0,0,1-.42.42H6.855V.839H22.663a.371.371,0,0,1,.42.42V24.412ZM8.534,16.927a.371.371,0,0,1,.42-.42H13.29a.42.42,0,1,1,0,.839H9.023A.468.468,0,0,1,8.534,16.927Zm6.016,0a.371.371,0,0,1,.42-.42h3.008a.42.42,0,1,1,0,.839H14.969A.451.451,0,0,1,14.549,16.927Zm6.855,0a.371.371,0,0,1-.42.42H19.725a.42.42,0,0,1,0-.839h1.259C21.264,16.438,21.4,16.648,21.4,16.927Zm0,2.518a.371.371,0,0,1-.42.42H17.977a.42.42,0,0,1,0-.839h3.008A.4.4,0,0,1,21.4,19.446Zm-5.106.42H12.87a.42.42,0,1,1,0-.839H16.3a.371.371,0,0,1,.42.42A.4.4,0,0,1,16.3,19.865Zm-7.764-.42a.371.371,0,0,1,.42-.42h2.168a.42.42,0,1,1,0,.839H8.953A.4.4,0,0,1,8.534,19.446Zm3.917,2.588a.371.371,0,0,1-.42.42H9.023a.42.42,0,0,1,0-.839h3.008A.4.4,0,0,1,12.451,22.034Zm5.526,0a.371.371,0,0,1-.42.42H13.71a.42.42,0,1,1,0-.839h3.847A.371.371,0,0,1,17.977,22.034Zm3.427,0a.371.371,0,0,1-.42.42H19.306a.42.42,0,0,1,0-.839h1.679A.371.371,0,0,1,21.4,22.034ZM8.953,13.57a.53.53,0,0,1-.28-.14.338.338,0,0,1,0-.49l3.987-3.567h3.567l5.036-5.036a.346.346,0,1,1,.49.49l-5.246,5.246H12.94L9.163,13.43C9.093,13.5,9.023,13.57,8.953,13.57Zm12.8-6.645h-.42l.07-2.238-2.238.07v-.42l2.658-.07Z" transform="translate(508.489 2789.292)"/>
</svg>
