<svg xmlns="http://www.w3.org/2000/svg" viewBox="509.207 2720 24.493 25.361">
  <defs>
    <style>
      .cls-1 {
        fill: #f1b02f;
      }
    </style>
  </defs>
  <path id="Path_3301" data-name="Path 3301" class="cls-1" d="M22.825,1.6h-2.2a.431.431,0,0,0-.4.4.431.431,0,0,0,.4.4h.734a1.893,1.893,0,0,0-.267.868V22.424a.4.4,0,0,0,.8,0V3.27a.868.868,0,1,1,1.735,0V22.424a2.136,2.136,0,1,1-4.271,0V.4a.431.431,0,0,0-.4-.4H.4A.431.431,0,0,0,0,.4V22.424a2.963,2.963,0,0,0,2.937,2.937h18.62a2.963,2.963,0,0,0,2.937-2.937V3.27A1.7,1.7,0,0,0,22.825,1.6ZM2.937,24.56A2.108,2.108,0,0,1,.8,22.424V.8H18.62V22.424a2.775,2.775,0,0,0,.934,2.136H2.937Zm0,0M16.885,2.136H2.536a.431.431,0,0,0-.4.4V6.607a.431.431,0,0,0,.4.4H16.818a.431.431,0,0,0,.4-.4V2.536a.334.334,0,0,0-.334-.4Zm-.467,4.071H2.937V2.937H16.418Zm0,0,.467,1.6H2.536a.4.4,0,1,0,0,.8H16.818a.431.431,0,0,0,.4-.4.334.334,0,0,0-.334-.4Zm0,0,0,3.27h-6.34a.4.4,0,0,0,0,.8h6.34a.4.4,0,0,0,0-.8Zm0,0-8.009,0H2.536a.4.4,0,0,0,0,.8h6.34a.431.431,0,0,0,.4-.4.385.385,0,0,0-.4-.4Zm0,0,8.009,1.6h-6.34a.4.4,0,0,0,0,.8h6.34a.4.4,0,0,0,0-.8Zm0,0-8.009,0H2.536a.4.4,0,0,0,0,.8h6.34a.431.431,0,0,0,.4-.4.385.385,0,0,0-.4-.4Zm0,0,8.009,1.6h-6.34a.4.4,0,1,0,0,.8h6.34a.4.4,0,0,0,0-.8Zm0,0,0,1.668h-6.34a.4.4,0,1,0,0,.8h6.34a.431.431,0,0,0,.4-.4.385.385,0,0,0-.4-.4Zm0,0-6.34,2.4h4.138a.4.4,0,0,0,0-.8h-4.2a.431.431,0,0,0-.4.4.5.5,0,0,0,.467.4Zm0,0,4.138,4.071h-4.2a.4.4,0,1,0,0,.8h4.2a.431.431,0,0,0,.4-.4.354.354,0,0,0-.4-.4Zm0,0,2.2-1.668h-6.34a.4.4,0,1,0,0,.8h6.34a.4.4,0,1,0,0-.8Zm0,0M8.876,14.282H2.536a.431.431,0,0,0-.4.4v8.075a.431.431,0,0,0,.4.4h6.34a.431.431,0,0,0,.4-.4V14.683a.385.385,0,0,0-.4-.4Zm-.4,8.142H2.937V15.15H8.476v7.275Zm0,0" transform="translate(509.207 2720)"/>
</svg>
