<svg xmlns="http://www.w3.org/2000/svg" viewBox="875 2803.871 24.631 24.629">
  <defs>
    <style>
      .cls-1 {
        fill: #f1b02f;
      }
    </style>
  </defs>
  <path id="Path_3303" data-name="Path 3303" class="cls-1" d="M21.958,0a2.659,2.659,0,0,0-2.671,2.671,3.234,3.234,0,0,0,.3,1.306L15.193,8.368a3.511,3.511,0,0,0-4.392,0L7.359,4.926a1.545,1.545,0,0,0,.237-.89,1.78,1.78,0,1,0-1.78,1.78,1.966,1.966,0,0,0,.89-.237l3.442,3.442a3.511,3.511,0,0,0,0,4.392l-5.7,5.7a2.8,2.8,0,0,0-1.78-.712,2.671,2.671,0,1,0,2.671,2.671,3.234,3.234,0,0,0-.3-1.306L10.8,14.006a2.986,2.986,0,0,0,1.721.712v4.57a2.739,2.739,0,0,0-2.255,2.671,2.671,2.671,0,0,0,5.341,0,2.731,2.731,0,0,0-2.255-2.671v-4.57a3.441,3.441,0,0,0,1.721-.712l3.442,3.442a1.545,1.545,0,0,0-.237.89,1.78,1.78,0,1,0,1.78-1.78,1.966,1.966,0,0,0-.89.237l-3.442-3.442a3.511,3.511,0,0,0,0-4.392l4.451-4.273a2.8,2.8,0,0,0,1.78.712A2.659,2.659,0,0,0,24.629,2.73,2.637,2.637,0,0,0,21.958,0ZM4.926,4.036a.89.89,0,0,1,1.78,0,.89.89,0,1,1-1.78,0ZM2.671,22.848a1.78,1.78,0,1,1,1.78-1.78,1.714,1.714,0,0,1-1.78,1.78Zm12.107-.89A1.78,1.78,0,1,1,13,20.178a1.785,1.785,0,0,1,1.78,1.78ZM13,13.887a2.671,2.671,0,1,1,2.671-2.671A2.623,2.623,0,0,1,13,13.887Zm8.071,4.51a.89.89,0,1,1-.89-.89.913.913,0,0,1,.89.89Zm.89-13.887a1.78,1.78,0,1,1,1.78-1.78,1.748,1.748,0,0,1-1.78,1.78Zm0,0" transform="translate(875 2803.871)"/>
</svg>
