<svg xmlns="http://www.w3.org/2000/svg" viewBox="2816 2617 55 60.106">
  <defs>
    <style>
      .cls-1 {
        fill: #ea375d;
      }
    </style>
  </defs>
  <path id="Path_3319" data-name="Path 3319" class="cls-1" d="M47.872,326.981h-5v-1.7h6.809v11.17H47.872Zm0,13.723h1.7v-1.915h-1.7ZM52.66,324v33.3H55V364H36.809l5.957,13.4H35.532l-5.319-12.128-5.319,12.128H17.66l4.362-9.787H0V357.3a15.025,15.025,0,0,1,7.553-12.979V340.7a9.874,9.874,0,0,1,0-12.766V324H5.106v-6.7H55V324H52.66ZM6.915,333.9c4.362-1.6,5.745-4.362,5.745-4.362l1.6.745a5.094,5.094,0,0,1-.851,1.17,18.74,18.74,0,0,0,9.574,2.766A8.037,8.037,0,0,0,15,326.236,8.148,8.148,0,0,0,6.915,333.9Zm33.191,13.511a4.994,4.994,0,0,1-5,5H23.617V357.3h27.34V324H9.255v2.447a9.39,9.39,0,0,1,5.638-1.809,9.762,9.762,0,0,1,9.787,9.787,9.635,9.635,0,0,1-4.255,7.979H35.106A4.864,4.864,0,0,1,40.106,347.406ZM14.894,342.3a8.186,8.186,0,0,0,7.872-6.383c-5.745-.213-9.149-2.128-10.532-3.191A15.013,15.013,0,0,1,7.128,335.7,7.808,7.808,0,0,0,14.894,342.3Zm4.149,1.808H14.894a13.511,13.511,0,0,0-3.617.532l3.617,4.149,4.149-4.681ZM9.255,342.3v1.17a5.183,5.183,0,0,1,1.17-.426A11.213,11.213,0,0,0,9.255,342.3Zm14.362,7.447v.957H35.106a3.3,3.3,0,0,0,0-6.6H21.277l-5.532,6.383v6.277h-1.7v-6.277l-4.574-5.213A13.176,13.176,0,0,0,1.7,357.3v8.617H6.17v-8.191h1.7v8.191H21.809v-16.17ZM28.83,364h-3.4l-5.106,11.7h3.4Zm6.064,0h-3.4L36.6,375.7H40Zm-11.277-5v3.3H53.4V359ZM52.66,322.194H53.3v-3.3H6.915v3.3H52.66ZM14.043,360.811h1.7v-2.234h-1.7Zm27.021-25.638a2.97,2.97,0,0,1-2.128-.851l-4.787,2.766a1.81,1.81,0,0,1,.106.745,3.085,3.085,0,1,1-3.085-3.085,2.97,2.97,0,0,1,2.128.851l4.787-2.766a1.811,1.811,0,0,1-.106-.745,3.085,3.085,0,1,1,6.17,0A3.021,3.021,0,0,1,41.064,335.172Zm-8.617,2.66a1.383,1.383,0,1,0-1.383,1.383A1.408,1.408,0,0,0,32.447,337.832Zm8.617-4.362a1.383,1.383,0,1,0-1.383-1.383A1.408,1.408,0,0,0,41.064,333.47ZM48.3,347.406a3.085,3.085,0,1,1-3.085-3.085A3.158,3.158,0,0,1,48.3,347.406Zm-1.809,0a1.383,1.383,0,1,0-1.383,1.383A1.408,1.408,0,0,0,46.489,347.406Z" transform="translate(2816 2299.7)"/>
</svg>
