<svg xmlns="http://www.w3.org/2000/svg" viewBox="3550.779 2616 54.478 61.261">
  <defs>
    <style>
      .cls-1 {
        fill: #ea375d;
      }
    </style>
  </defs>
  <path id="Path_3325" data-name="Path 3325" class="cls-1" d="M45.367,50.133a.962.962,0,0,0,.318-.742V4.875a.95.95,0,0,0-.954-.954h-28.3A5.5,5.5,0,0,0,11.133,0a5.566,5.566,0,0,0-5.3,3.922H2.654a.95.95,0,0,0-.954.954V60.308a.95.95,0,0,0,.954.954H33.815a.825.825,0,0,0,.742-.318Zm-10.6,7.843V50.345H42.4ZM11.133,1.908a3.656,3.656,0,0,1,3.18,1.908H7.953a3.792,3.792,0,0,1,3.18-1.908ZM3.714,5.829H14.737v6.889a1.59,1.59,0,1,1-3.18,0V8.8a.954.954,0,1,0-1.908,0v3.922a3.6,3.6,0,1,0,7.207,0V5.829H43.883v42.5H33.815a.95.95,0,0,0-.954.954V59.354H3.714Zm0,0M36.888,45.045a.954.954,0,0,0,0-1.908H10.6a.954.954,0,0,0,0,1.908Zm0,0M10.6,39.216H36.994a.954.954,0,0,0,0-1.908H10.6a.95.95,0,0,0-.954.954c-.106.53.318.954.954.954Zm0,0,0-5.935H36.994a.954.954,0,0,0,0-1.908H10.6a.95.95,0,0,0-.954.954c-.106.53.318.954.954.954Zm0,0,0-5.829H36.994a.954.954,0,0,0,0-1.908H10.6a.95.95,0,0,0-.954.954c-.106.53.318.954.954.954Zm0,0,0-5.829H36.994a.954.954,0,0,0,0-1.908H10.6a.95.95,0,0,0-.954.954c-.106.424.318.954.954.954Zm0,0,39.322-17.7H48.653a.954.954,0,1,0,0,1.908h.318V59.354H38.478a.954.954,0,0,0,0,1.908H49.925a.95.95,0,0,0,.954-.954V4.875c.106-.53-.424-.954-.954-.954Zm0,0,5.3,0H53.952a.954.954,0,1,0,0,1.908h.318V59.354h-.318a.954.954,0,1,0,0,1.908h1.272a.95.95,0,0,0,.954-.954V4.875a.95.95,0,0,0-.954-.954Zm0,0" transform="translate(3549.079 2616)"/>
</svg>
