<svg xmlns="http://www.w3.org/2000/svg" viewBox="602.272 3896.719 20.517 25.599">
  <defs>
    <style>
      .cls-1 {
        fill: #f1b02f;
      }
    </style>
  </defs>
  <path id="accounting" class="cls-1" d="M9.824,309.728a.383.383,0,0,0-.767,0,1.426,1.426,0,0,0,1.294,1.294v.048a.383.383,0,0,0,.767,0v-.048a1.426,1.426,0,0,0,1.294-1.294,1.594,1.594,0,0,0-1.294-1.486v-1.39c.288.1.479.288.479.479a.383.383,0,0,0,.767,0,1.426,1.426,0,0,0-1.294-1.294v-.048a.383.383,0,0,0-.767,0v.048a1.426,1.426,0,0,0-1.294,1.294,1.594,1.594,0,0,0,1.294,1.486v1.39C10.016,310.111,9.824,309.919,9.824,309.728Zm1.774,0c0,.192-.192.384-.479.479v-1.1C11.55,309.3,11.6,309.488,11.6,309.728Zm-1.774-2.4c0-.192.192-.383.479-.479v1.1C9.92,307.714,9.824,307.57,9.824,307.331Zm3.5-.527a.378.378,0,0,1,.383-.383h3.451a.383.383,0,1,1,0,.767H13.707A.378.378,0,0,1,13.324,306.8Zm0,3.451a.378.378,0,0,1,.383-.383h.431a.383.383,0,1,1,0,.767h-.431A.412.412,0,0,1,13.324,310.255Zm-4.266,2.972a.378.378,0,0,1,.383-.383H21.425a.383.383,0,1,1,0,.767H9.441A.353.353,0,0,1,9.057,313.227Zm4.65,2.589a.378.378,0,0,1-.383.383H12.029a.384.384,0,0,1,0-.767h1.294C13.515,315.384,13.707,315.576,13.707,315.816Zm-3.02,0a.378.378,0,0,1-.383.383H9.441a.384.384,0,0,1,0-.767H10.3C10.543,315.384,10.687,315.576,10.687,315.816Zm3.02,1.678a.378.378,0,0,1-.383.383H12.029a.383.383,0,1,1,0-.767h1.294A.412.412,0,0,1,13.707,317.494Zm-3.02,0a.378.378,0,0,1-.383.383H9.441a.383.383,0,1,1,0-.767H10.3A.378.378,0,0,1,10.687,317.494Zm3.02,1.726a.378.378,0,0,1-.383.383H12.029a.383.383,0,1,1,0-.767h1.294A.412.412,0,0,1,13.707,319.219Zm-3.02,0a.378.378,0,0,1-.383.383H9.441a.383.383,0,1,1,0-.767H10.3A.378.378,0,0,1,10.687,319.219Zm3.02,1.726a.378.378,0,0,1-.383.383H12.029a.383.383,0,1,1,0-.767h1.294A.378.378,0,0,1,13.707,320.945Zm-3.02,0a.378.378,0,0,1-.383.383H9.441a.383.383,0,1,1,0-.767H10.3A.353.353,0,0,1,10.687,320.945Zm3.02,1.726a.378.378,0,0,1-.383.383H12.029a.384.384,0,0,1,0-.767h1.294C13.515,322.239,13.707,322.431,13.707,322.671Zm-3.02,0a.378.378,0,0,1-.383.383H9.441a.384.384,0,0,1,0-.767H10.3C10.543,322.239,10.687,322.431,10.687,322.671Zm7.334-12.847h.431a.383.383,0,1,1,0,.767h-.431a.378.378,0,0,1-.383-.383C17.59,310.015,17.782,309.824,18.021,309.824Zm1.726.431a.378.378,0,0,1,.383-.383h.431a.383.383,0,1,1,0,.767h-.431A.412.412,0,0,1,19.747,310.255Zm-3.451-.431a.383.383,0,1,1,0,.767h-.431a.383.383,0,1,1,0-.767Zm-2.972-1.294a.378.378,0,0,1,.383-.383h4.266a.378.378,0,0,1,.383.383.412.412,0,0,1-.383.383H13.707A.412.412,0,0,1,13.324,308.529Zm12.416,5.992H24.014V308.05a.681.681,0,0,0-.1-.288L19.651,303.5a.352.352,0,0,0-.288-.1H8.146A1.269,1.269,0,0,0,6.9,304.646v20.565a1.269,1.269,0,0,0,1.246,1.246h6.472v.863A1.7,1.7,0,0,0,16.3,329h9.444a1.7,1.7,0,0,0,1.678-1.678V316.2A1.7,1.7,0,0,0,25.739,314.521ZM19.7,304.79l2.924,2.924H20.61a.859.859,0,0,1-.863-.863V304.79Zm-11.553,20.9a.43.43,0,0,1-.431-.431V304.646a.43.43,0,0,1,.431-.431H18.884V306.8a1.7,1.7,0,0,0,1.678,1.678h2.589v6.04H16.3a1.7,1.7,0,0,0-1.678,1.678v9.444H8.146ZM26.6,327.369a.859.859,0,0,1-.863.863H16.3a.859.859,0,0,1-.863-.863V316.247a.859.859,0,0,1,.863-.863h9.444a.859.859,0,0,1,.863.863Zm-1.726-11.121H17.159a.808.808,0,0,0-.815.815v1.726a.808.808,0,0,0,.815.815h7.718a.808.808,0,0,0,.815-.815V317.11A.85.85,0,0,0,24.876,316.247Zm0,2.541h0l-7.718.048a.047.047,0,0,1-.048-.048V317.11a.047.047,0,0,1,.048-.048h7.718a.047.047,0,0,1,.048.048v1.678Zm-6.855,2.205h-.863a.808.808,0,0,0-.815.815v.863a.808.808,0,0,0,.815.815h.863a.808.808,0,0,0,.815-.815v-.863A.808.808,0,0,0,18.021,320.993Zm0,1.678h0l-.863.048a.047.047,0,0,1-.048-.048v-.863a.047.047,0,0,1,.048-.048h.863a.047.047,0,0,1,.048.048v.863Zm6.855-1.678h-.863a.808.808,0,0,0-.815.815v.863a.808.808,0,0,0,.815.815h.863a.808.808,0,0,0,.815-.815v-.863A.808.808,0,0,0,24.876,320.993Zm0,1.678h0l-.863.048a.047.047,0,0,1-.048-.048v-.863a.047.047,0,0,1,.048-.048h.863a.047.047,0,0,1,.048.048v.863Zm-3.451-1.678h-.863a.808.808,0,0,0-.815.815v.863a.808.808,0,0,0,.815.815h.863a.808.808,0,0,0,.815-.815v-.863A.755.755,0,0,0,21.425,320.993Zm.048,1.678h0l-.863.048a.047.047,0,0,1-.048-.048v-.863a.047.047,0,0,1,.048-.048h.863a.047.047,0,0,1,.048.048v.863Z" transform="translate(595.372 3593.319)"/>
</svg>
