<svg xmlns="http://www.w3.org/2000/svg" viewBox="599.318 3791.182 25.227 25.083">
  <defs>
    <style>
      .cls-1 {
        fill: #f1b02f;
      }
    </style>
  </defs>
  <path id="bank-akk" class="cls-1" d="M25.647,112.1l-8.341-5.369a.346.346,0,1,0-.383.575l8.2,5.273H23.2l-9.348-5.992h0a1.039,1.039,0,0,0-1.055,0l-9.3,6.04H1.582l11.793-7.574,1.678,1.055a.346.346,0,1,0,.383-.575l-1.678-1.055a.736.736,0,0,0-.767,0l-11.936,7.67a.682.682,0,0,0-.288.767.662.662,0,0,0,.623.479H3.212v2.349a.569.569,0,0,0,.479.575v.623a.583.583,0,0,0,.575.575h.048v4.41a.336.336,0,1,0,.671,0v-4.746a.328.328,0,0,0-.336-.336h-.24v-.479H6.951v.479H6.664a.328.328,0,0,0-.336.336v7.91a.328.328,0,0,0,.336.336h.288v.527H4.411v-.527H4.7a.328.328,0,0,0,.336-.336v-.911a.336.336,0,0,0-.671,0v.575h-.1a.583.583,0,0,0-.575.575v.623a.569.569,0,0,0-.479.575v.719H1.966a.737.737,0,0,0-.719.719v.767a.737.737,0,0,0,.719.719H24.784a.737.737,0,0,0,.719-.719v-.767a.737.737,0,0,0-.719-.719H23.538v-.719a.569.569,0,0,0-.479-.575v-.623a.583.583,0,0,0-.575-.575h-.048V117.57h0a.583.583,0,0,0,.575-.575v-.623a.569.569,0,0,0,.479-.575v-2.349h1.822a.621.621,0,0,0,.623-.479A.768.768,0,0,0,25.647,112.1Zm-12.416-4.89a.306.306,0,0,1,.288,0h0l8.437,5.417H4.794Zm-2.349,7.718v.719a.569.569,0,0,0,.479.575v.623a.583.583,0,0,0,.575.575h.048v7.191h-.048a.583.583,0,0,0-.575.575v.623a.569.569,0,0,0-.479.575v.719H8.1v-.719a.569.569,0,0,0-.479-.575v-.623a.583.583,0,0,0-.575-.575H7v-7.191h.1a.583.583,0,0,0,.575-.575v-.623a.569.569,0,0,0,.479-.575v-.719Zm7.67,0v.719a.569.569,0,0,0,.479.575v.623a.583.583,0,0,0,.575.575h.048v7.191h-.048a.583.583,0,0,0-.575.575v.623a.569.569,0,0,0-.479.575v.719h-2.78v-.719a.569.569,0,0,0-.479-.575v-.623a.583.583,0,0,0-.575-.575h-.048v-7.191h.1a.583.583,0,0,0,.575-.575v-.623a.569.569,0,0,0,.479-.575v-.719Zm4.218.575H19.319v-.623h3.5l-.048.623ZM22,125.383h.288v.527H19.751v-.527h.288a.328.328,0,0,0,.336-.336v-7.91a.328.328,0,0,0-.336-.336h-.288v-.479h2.541v.479H22a.328.328,0,0,0-.336.336v7.91A.36.36,0,0,0,22,125.383Zm-9.635-8.629h-.288v-.479h2.541v.479h-.288a.328.328,0,0,0-.336.336V125a.328.328,0,0,0,.336.336h.288v.527H12.081v-.527h.288A.328.328,0,0,0,12.7,125v-7.91A.328.328,0,0,0,12.368,116.755ZM11.6,126.63h3.451v.575h-3.5v-.575Zm3.5-11.121H11.649v-.623h3.5v.623Zm-7.67,0h-3.5v-.623h3.5v.623Zm-3.5,11.121H7.383v.575H3.931v-.575Zm20.8,1.294v.767H1.918v-.767Zm-5.465-.719v-.575h3.451v.575Zm3.5-12.991H3.883v-.863H22.723l.048.863Zm-9.587-2.061c-.671,0-1.15-.383-1.15-.671,0-.144.1-.336.24-.336.192,0,.336.383.911.431v-1.294c-.479-.192-1.055-.383-1.055-1.1a1.022,1.022,0,0,1,1.055-1.007v-.144a.153.153,0,0,1,.144-.144.127.127,0,0,1,.144.144v.144c.383,0,.911.144.911.384,0,.1-.1.336-.24.336s-.288-.192-.671-.192v1.1c.479.192,1.007.431,1.007,1.15a1.111,1.111,0,0,1-1.007,1.15v.192a.216.216,0,0,1-.144.144.127.127,0,0,1-.144-.144v-.144Zm.048-2.445V108.7c-.288.048-.527.192-.527.479S12.943,109.612,13.231,109.708Zm.24.719v1.15a.523.523,0,0,0,.479-.527A.621.621,0,0,0,13.471,110.427Z" transform="translate(598.58 3686.807)"/>
</svg>
