<svg xmlns="http://www.w3.org/2000/svg" viewBox="599.779 3735.633 24.64 27.708">
  <defs>
    <style>
      .cls-1 {
        fill: #f1b02f;
      }
    </style>
  </defs>
  <path id="ligal-assistance" class="cls-1" d="M21.45,22.674a.435.435,0,0,0,.144-.336V2.205a.43.43,0,0,0-.431-.431H8.363A2.488,2.488,0,0,0,5.966,0a2.517,2.517,0,0,0-2.4,1.774H2.131a.43.43,0,0,0-.431.431V27.276a.43.43,0,0,0,.431.431H16.225a.373.373,0,0,0,.336-.144Zm-4.794,3.547V22.77h3.451ZM5.966.863A1.653,1.653,0,0,1,7.4,1.726H4.528A1.715,1.715,0,0,1,5.966.863ZM2.611,2.637H7.6V5.752a.719.719,0,1,1-1.438,0V3.979a.431.431,0,1,0-.863,0V5.752a1.63,1.63,0,1,0,3.26,0V2.637H20.779V21.859H16.225a.43.43,0,0,0-.431.431v4.554H2.611Zm0,0,15,17.737a.431.431,0,0,0,0-.863H5.727a.431.431,0,0,0,0,.863Zm0,0M5.727,17.737H17.663a.431.431,0,0,0,0-.863H5.727a.43.43,0,0,0-.431.431c-.048.24.144.431.431.431Zm0,0,0-2.684H17.663a.431.431,0,0,0,0-.863H5.727a.43.43,0,0,0-.431.431c-.048.24.144.431.431.431Zm0,0,0-2.637H17.663a.431.431,0,0,0,0-.863H5.727a.43.43,0,0,0-.431.431c-.048.24.144.431.431.431Zm0,0,0-2.637H17.663a.431.431,0,0,0,0-.863H5.727a.43.43,0,0,0-.431.431c-.048.192.144.431.431.431Zm0,0M23.511,1.774h-.575a.431.431,0,1,0,0,.863h.144V26.845H18.334a.431.431,0,0,0,0,.863h5.177a.43.43,0,0,0,.431-.431V2.205c.048-.24-.192-.431-.431-.431Zm0,0,2.4,0h-.575a.431.431,0,0,0,0,.863h.144V26.845h-.144a.431.431,0,0,0,0,.863h.575a.43.43,0,0,0,.431-.431V2.205a.43.43,0,0,0-.431-.431Zm0,0" transform="translate(598.079 3735.633)"/>
</svg>
