<svg xmlns="http://www.w3.org/2000/svg" viewBox="599 3961.804 25.622 25.503">
  <defs>
    <style>
      .cls-1 {
        fill: #f1b02f;
      }
    </style>
  </defs>
  <path id="transaction-support" class="cls-1" d="M2.292,419.548l2.732,2.732a1.668,1.668,0,0,0,.24,1.965,1.558,1.558,0,0,0,1.15.479h.1a1.775,1.775,0,0,0,.479,1.246,1.558,1.558,0,0,0,1.15.479h.1a1.775,1.775,0,0,0,.479,1.246,1.558,1.558,0,0,0,1.15.479h.1a1.775,1.775,0,0,0,.479,1.246,1.62,1.62,0,0,0,2.3,0l.144-.144.144.144a1.62,1.62,0,0,0,2.3,0,1.7,1.7,0,0,0,.479-1.246h.1a1.558,1.558,0,0,0,1.15-.479,1.7,1.7,0,0,0,.479-1.246h.1a1.558,1.558,0,0,0,1.15-.479,1.7,1.7,0,0,0,.479-1.246h.1a1.558,1.558,0,0,0,1.15-.479,1.6,1.6,0,0,0,.24-1.965l2.732-2.732,2.109-2.109a.5.5,0,0,0,0-.623l-5.944-5.944a.5.5,0,0,0-.623,0l-2.013,2.013H13.8a.342.342,0,0,0-.288.144l-.959.959-.959-.959a.414.414,0,0,0-.288-.144h-2.4l-2.013-2.013a.5.5,0,0,0-.623,0L.183,416.816a.5.5,0,0,0,0,.623Zm3.6,4.075a.812.812,0,0,1,0-1.1l1.678-1.678a.7.7,0,0,1,1.055,0,.812.812,0,0,1,0,1.1l-1.678,1.678A.678.678,0,0,1,5.887,423.623Zm1.678,1.726a.812.812,0,0,1,0-1.1l1.678-1.678a.7.7,0,0,1,1.055,0,.812.812,0,0,1,0,1.1L8.62,425.349A.752.752,0,0,1,7.565,425.349Zm1.726,1.678a.812.812,0,0,1,0-1.1l1.678-1.678a.7.7,0,0,1,1.055,0c.048.048.1.1.1.144v.048c0,.048.048.1.048.144v.048a.529.529,0,0,1,0,.383h0a.773.773,0,0,1-.192.336L10.3,427.026A.629.629,0,0,1,9.291,427.026Zm1.678,1.726a.812.812,0,0,1,0-1.1l1.678-1.678a1.2,1.2,0,0,1,.336-.192h0a.525.525,0,0,1,.383,0h.048c.048,0,.1.048.144.048h.048c.048.048.1.048.144.1s.1.1.1.144v.048c0,.048.048.1.048.144v.048a.529.529,0,0,1,0,.383h0a.363.363,0,0,1-.1.192h0c-.048.048-.048.1-.1.144l-1.294,1.294-.431.431A.693.693,0,0,1,10.969,428.752Zm3.643,0a.812.812,0,0,1-1.1,0l-.144-.144.959-.959c.048-.048.1-.1.1-.144l.144.144A.7.7,0,0,1,14.612,428.752Zm4.554-16.97,5.369,5.369L23,418.685l-5.369-5.369Zm-5.321,1.965h3.068l5.513,5.513-2.4,2.4-5.369-5.369.527-.527-.623-.623-2.541,2.541a.78.78,0,1,1-1.1-1.1Zm-2.061.815-1.39,1.39a1.65,1.65,0,0,0,0,2.3,1.62,1.62,0,0,0,2.3,0l1.39-1.39,5.657,5.657a.78.78,0,0,1-1.1,1.1l-2.972-2.972-.623.623,2.972,2.972a.78.78,0,1,1-1.1,1.1l-2.972-2.972-.623.623,2.972,2.972a.78.78,0,0,1-1.1,1.1l-.383-.383v-.384c0-.1-.048-.192-.048-.288v-.048a1.048,1.048,0,0,0-.144-.24.047.047,0,0,0-.048-.048,1.271,1.271,0,0,0-.24-.288,1.62,1.62,0,0,0-.911-.431h-.336v-.336h0a1.22,1.22,0,0,0-.1-.336h0l-.144-.288h0c-.048-.1-.144-.192-.192-.288a1.7,1.7,0,0,0-1.246-.479,1.774,1.774,0,0,0-.479-1.246,1.7,1.7,0,0,0-1.246-.479,1.775,1.775,0,0,0-.479-1.246,1.65,1.65,0,0,0-2.3,0l-1.39,1.39-2.4-2.4,5.513-5.513h2.205Zm-5.369-2.78,1.534,1.534L2.58,418.685l-1.534-1.534Zm5.944-5.273a.43.43,0,0,0,.431.431,1.289,1.289,0,0,1,1.294,1.294,1.237,1.237,0,0,1-.863,1.2v.911h-.863v-.911a1.3,1.3,0,0,1-.863-1.2h.863a.431.431,0,1,0,.431-.431,1.289,1.289,0,0,1-1.294-1.294,1.237,1.237,0,0,1,.863-1.2V404.4h.863v.911a1.3,1.3,0,0,1,.863,1.2.431.431,0,1,1-.863,0,.431.431,0,1,0-.863,0ZM2.148,412.022h.863v.863H2.148Zm0-1.678h.863v.863H2.148Zm0-1.726h.863v.863H2.148Zm0-1.678h.863v.863H2.148Zm1.726,0h.863v.863H3.874Zm1.678,0h.863v.863H5.552Zm1.726,0H8.14v.863H7.278Zm1.678,0h.863v.863H8.955Zm13.614,5.081h.863v.863H22.57Zm0-1.678h.863v.863H22.57Zm0-1.726h.863v.863H22.57Zm0-1.678h.863v.863H22.57Zm-1.678,0h.863v.863h-.863Zm-1.726,0h.863v.863h-.863Zm-1.678,0h.863v.863h-.863Zm-1.726,0h.863v.863h-.863Z" transform="translate(598.925 3557.405)"/>
</svg>
