<svg xmlns="http://www.w3.org/2000/svg" viewBox="601.409 3837.628 20.853 27.276">
  <defs>
    <style>
      .cls-1 {
        fill: #f1b02f;
      }
    </style>
  </defs>
  <path id="tax-optimization" class="cls-1" d="M24.658,204.9H6.442A1.372,1.372,0,0,0,5.1,206.242v24.592a1.372,1.372,0,0,0,1.342,1.342H20.536a.342.342,0,0,0,.288-.144l4.985-4.985a.414.414,0,0,0,.144-.288V206.29A1.343,1.343,0,0,0,24.658,204.9Zm-3.691,25.79v-3.068a.48.48,0,0,1,.479-.479h3.068Zm4.171-4.41H21.447a1.372,1.372,0,0,0-1.342,1.342v3.691H6.442a.48.48,0,0,1-.479-.479V206.29a.48.48,0,0,1,.479-.479H24.658a.48.48,0,0,1,.479.479ZM8.743,208.975a.43.43,0,0,1,.431-.431h3.643a.431.431,0,0,1,0,.863h-1.39v4.123a.431.431,0,0,1-.863,0v-4.123H9.175A.43.43,0,0,1,8.743,208.975Zm4.41,4.985a.413.413,0,0,0,.527-.288l.192-.623h2.445l.192.623a.419.419,0,0,0,.431.288h.144a.413.413,0,0,0,.288-.527l-1.246-4.218a.839.839,0,0,0-.863-.623h-.24a.921.921,0,0,0-.863.623l-1.246,4.218C12.77,213.625,12.914,213.864,13.153,213.96Zm1.774-4.506c0-.048.048-.048,0,0h.288l.815,2.78H14.064Zm6.759,4.41c-.1.048-.144.1-.24.1a.321.321,0,0,1-.336-.192l-1.246-1.774-1.246,1.774a.485.485,0,0,1-.336.192.366.366,0,0,1-.24-.1.4.4,0,0,1-.1-.575l1.438-2.013-1.438-2.013a.412.412,0,0,1,.671-.479l1.246,1.774,1.246-1.774a.412.412,0,0,1,.671.479l-1.438,2.013,1.438,2.013A.391.391,0,0,1,21.686,213.864ZM7.832,216.74a.43.43,0,0,1,.431-.431h.911a.431.431,0,1,1,0,.863H8.264A.506.506,0,0,1,7.832,216.74Zm0,1.774a.43.43,0,0,1,.431-.431h.911a.431.431,0,1,1,0,.863H8.264A.43.43,0,0,1,7.832,218.514Zm0,1.822a.43.43,0,0,1,.431-.431h.911a.431.431,0,0,1,0,.863H8.264A.43.43,0,0,1,7.832,220.336Zm15.436-3.6a.43.43,0,0,1-.431.431h-.911a.431.431,0,0,1,0-.863h.911A.43.43,0,0,1,23.268,216.74Zm0,1.774a.43.43,0,0,1-.431.431h-.911a.431.431,0,1,1,0-.863h.911A.506.506,0,0,1,23.268,218.514Zm0,1.822a.43.43,0,0,1-.431.431h-.911a.431.431,0,0,1,0-.863h.911A.506.506,0,0,1,23.268,220.336Zm-6.376-3.6a.43.43,0,0,1-.431.431H11a.431.431,0,1,1,0-.863h5.465A.43.43,0,0,1,16.893,216.74Zm-6.328,1.774a.43.43,0,0,1,.431-.431H14.64a.431.431,0,1,1,0,.863H11A.43.43,0,0,1,10.565,218.514Zm5.9,2.253H11a.431.431,0,0,1,0-.863h5.465a.431.431,0,0,1,0,.863Zm-5.9,3.787a.431.431,0,0,0,.863,0,1.524,1.524,0,0,0-1.342-1.39v-.048a.431.431,0,0,0-.863,0v.048a1.48,1.48,0,0,0-1.342,1.39c0,.959.767,1.342,1.342,1.582v1.486c-.336-.1-.527-.288-.527-.479a.431.431,0,0,0-.863,0,1.524,1.524,0,0,0,1.342,1.39v.048a.431.431,0,0,0,.863,0v-.048a1.48,1.48,0,0,0,1.342-1.39c0-.959-.767-1.342-1.342-1.582v-1.486A.562.562,0,0,1,10.565,224.554Zm-1.342.623c-.431-.192-.527-.383-.527-.671,0-.192.192-.384.527-.479Zm1.342,1.918c0,.192-.192.384-.527.479v-1.15C10.469,226.663,10.565,226.855,10.565,227.095Zm5.417-3.547a.431.431,0,1,1,0,.863H12.818a.431.431,0,1,1,0-.863Zm-.911,4.075a.43.43,0,0,1-.431.431H12.818a.431.431,0,1,1,0-.863H14.64A.43.43,0,0,1,15.071,227.622Zm2.732,0a.43.43,0,0,1-.431.431h-.911a.431.431,0,1,1,0-.863h.911A.43.43,0,0,1,17.8,227.622Zm1.342-1.822a.43.43,0,0,1-.431.431h-5.9a.431.431,0,1,1,0-.863h5.9A.43.43,0,0,1,19.146,225.8Zm-2.684-7.67a.431.431,0,1,1-.431.431A.43.43,0,0,1,16.461,218.131Zm1.822,0a.431.431,0,1,1-.431.431A.43.43,0,0,1,18.283,218.131Zm1.822,0a.431.431,0,1,1-.431.431A.43.43,0,0,1,20.1,218.131Zm-1.822-1.822a.431.431,0,1,1-.431.431A.43.43,0,0,1,18.283,216.309Zm1.822,0a.431.431,0,1,1-.431.431A.43.43,0,0,1,20.1,216.309Zm-1.822,3.643a.431.431,0,1,1-.431.431A.43.43,0,0,1,18.283,219.952Zm1.822,0a.431.431,0,1,1-.431.431A.43.43,0,0,1,20.1,219.952Z" transform="translate(596.309 3632.728)"/>
</svg>
