<svg xmlns="http://www.w3.org/2000/svg" viewBox="1209.793 85.406 9.135 18.084">
  <defs>
    <style>
      .cls-1 {
        fill: #fff;
      }
    </style>
  </defs>
  <path id="facebook" class="cls-1" d="M76.995,9.632h1.982v8.161a.292.292,0,0,0,.292.292H82.63a.292.292,0,0,0,.292-.292V9.67H85.2a.292.292,0,0,0,.29-.258l.346-3a.292.292,0,0,0-.29-.325H82.922V4.2c0-.568.306-.856.909-.856h1.716a.292.292,0,0,0,.292-.292V.294A.292.292,0,0,0,85.546,0H83.181c-.017,0-.054,0-.108,0a4.532,4.532,0,0,0-2.964,1.117A3.108,3.108,0,0,0,79.076,3.88v2.2H76.995a.292.292,0,0,0-.292.292V9.34A.292.292,0,0,0,76.995,9.632Z" transform="translate(1133.09 85.406)"/>
</svg>
