<svg xmlns="http://www.w3.org/2000/svg" viewBox="1130 87.93 14.788 12.875">
  <defs>
    <style>
      .cls-1 {
        fill: #fff;
      }
    </style>
  </defs>
  <path id="telegram" class="cls-1" d="M.261,25.574l3.407,1.272,1.319,4.241a.4.4,0,0,0,.637.192l1.9-1.548a.567.567,0,0,1,.691-.019L11.64,32.2a.4.4,0,0,0,.629-.243l2.51-12.071a.4.4,0,0,0-.538-.456L.257,24.823A.4.4,0,0,0,.261,25.574Zm4.514.595,6.659-4.1a.116.116,0,0,1,.14.184l-5.5,5.109a1.139,1.139,0,0,0-.353.682l-.187,1.387a.172.172,0,0,1-.336.024l-.72-2.53A.671.671,0,0,1,4.775,26.169Z" transform="translate(1130 68.53)"/>
</svg>
