<svg xmlns="http://www.w3.org/2000/svg" viewBox="1169.154 88.211 16.304 13.244">
  <defs>
    <style>
      .cls-1 {
        fill: #fff;
      }
    </style>
  </defs>
  <path id="twitter" class="cls-1" d="M16.305,59.008a6.679,6.679,0,0,1-1.92.527,3.359,3.359,0,0,0,1.47-1.849,6.743,6.743,0,0,1-2.125.812,3.347,3.347,0,0,0-5.7,3.049,9.5,9.5,0,0,1-6.893-3.495,3.349,3.349,0,0,0,1.035,4.464A3.345,3.345,0,0,1,.657,62.1v.042a3.348,3.348,0,0,0,2.683,3.28,3.387,3.387,0,0,1-.881.117,3.211,3.211,0,0,1-.63-.062A3.346,3.346,0,0,0,4.952,67.8,6.71,6.71,0,0,1,.8,69.226,7.109,7.109,0,0,1,0,69.18a9.454,9.454,0,0,0,5.127,1.5,9.45,9.45,0,0,0,9.516-9.516l-.011-.433A6.679,6.679,0,0,0,16.305,59.008Z" transform="translate(1169.153 30.77)"/>
</svg>
