<svg xmlns="http://www.w3.org/2000/svg" viewBox="2819 2921.479 13.678 10.521">
  <defs>
    <style>
      .cls-1 {
        fill: #ea375d;
      }
    </style>
  </defs>
  <path id="checked_1_" data-name="checked (1)" class="cls-1" d="M.158,8.787a.509.509,0,0,1,0-.737l.737-.737a.509.509,0,0,1,.737,0l.053.053,2.893,3.1a.254.254,0,0,0,.368,0l7.049-7.312h.053a.509.509,0,0,1,.737,0l.737.737a.509.509,0,0,1,0,.737h0L5.1,13.364a.509.509,0,0,1-.737,0L.263,8.945.158,8.787Z" transform="translate(2819 2918.479)"/>
</svg>
