<svg xmlns="http://www.w3.org/2000/svg" viewBox="3270 6545.616 13.039 12.083">
  <defs>
    <style>
      .cls-1 {
        fill: #ffc30f;
      }
    </style>
  </defs>
  <g id="download" transform="translate(3270 6528.366)">
    <g id="Group_228" data-name="Group 228" transform="translate(0 17.25)">
      <path id="Path_3656" data-name="Path 3656" class="cls-1" d="M12.665,228.205a.372.372,0,0,0-.374.374v3.4a1.676,1.676,0,0,1-1.674,1.674h-8.2a1.676,1.676,0,0,1-1.674-1.674v-3.453a.374.374,0,0,0-.747,0v3.453A2.424,2.424,0,0,0,2.421,234.4h8.2a2.424,2.424,0,0,0,2.421-2.421v-3.4A.374.374,0,0,0,12.665,228.205Z" transform="translate(0 -222.314)"/>
      <path id="Path_3657" data-name="Path 3657" class="cls-1" d="M138.712,26.368a.376.376,0,0,0,.263.111.365.365,0,0,0,.263-.111l2.374-2.374a.374.374,0,0,0-.529-.529L139.348,25.2V17.624a.374.374,0,1,0-.747,0V25.2l-1.738-1.738a.374.374,0,0,0-.529.529Z" transform="translate(-132.456 -17.25)"/>
    </g>
  </g>
</svg>
