<svg xmlns="http://www.w3.org/2000/svg" viewBox="3599.001 2937.718 205.314 192.396">
  <defs>
    <style>
      .cls-1 {
        fill: #fff;
      }

      .cls-2 {
        fill: #f4f4f4;
      }

      .cls-3 {
        fill: #7450ea;
      }

      .cls-4 {
        fill: #cac9ca;
      }

      .cls-5 {
        fill: #ffc30f;
      }

      .cls-6 {
        fill: #a1b53a;
      }
    </style>
  </defs>
  <g id="icon2" transform="translate(3599.001 2937.718)">
    <rect id="Rectangle_58" data-name="Rectangle 58" class="cls-1" width="205.314" height="158.864"/>
    <rect id="Rectangle_59" data-name="Rectangle 59" class="cls-2" width="196.244" height="18.69" transform="translate(4.489 12.552)"/>
    <rect id="Rectangle_60" data-name="Rectangle 60" class="cls-1" width="93.999" height="5.222" transform="translate(47.549 19.24)"/>
    <rect id="Rectangle_61" data-name="Rectangle 61" class="cls-1" width="45.534" height="5.222" transform="translate(144.847 19.24)"/>
    <g id="Group_332" data-name="Group 332" transform="translate(10.261 18.873)">
      <path id="Path_4697" data-name="Path 4697" class="cls-3" d="M17.247,23.623A3.023,3.023,0,1,1,14.223,20.6,3.05,3.05,0,0,1,17.247,23.623Z" transform="translate(-11.2 -20.6)"/>
      <path id="Path_4698" data-name="Path 4698" class="cls-3" d="M26.147,23.623A3.023,3.023,0,1,1,23.123,20.6,3.05,3.05,0,0,1,26.147,23.623Z" transform="translate(-11.946 -20.6)"/>
      <path id="Path_4699" data-name="Path 4699" class="cls-3" d="M35.047,23.623A3.023,3.023,0,1,1,32.023,20.6,2.992,2.992,0,0,1,35.047,23.623Z" transform="translate(-12.692 -20.6)"/>
    </g>
    <g id="Group_335" data-name="Group 335" transform="translate(7.238 54.329)">
      <g id="Group_333" data-name="Group 333">
        <rect id="Rectangle_62" data-name="Rectangle 62" class="cls-4" width="51.947" height="2.29"/>
        <rect id="Rectangle_63" data-name="Rectangle 63" class="cls-4" width="51.947" height="2.29" transform="translate(0 4.031)"/>
        <rect id="Rectangle_64" data-name="Rectangle 64" class="cls-4" width="51.947" height="2.29" transform="translate(0 8.062)"/>
        <rect id="Rectangle_65" data-name="Rectangle 65" class="cls-4" width="51.947" height="2.29" transform="translate(0 12.093)"/>
        <rect id="Rectangle_66" data-name="Rectangle 66" class="cls-4" width="51.947" height="2.29" transform="translate(0 16.216)"/>
        <rect id="Rectangle_67" data-name="Rectangle 67" class="cls-4" width="51.947" height="2.29" transform="translate(0 20.247)"/>
        <rect id="Rectangle_68" data-name="Rectangle 68" class="cls-4" width="51.947" height="2.29" transform="translate(0 24.279)"/>
        <rect id="Rectangle_69" data-name="Rectangle 69" class="cls-4" width="51.947" height="2.29" transform="translate(0 28.401)"/>
        <rect id="Rectangle_70" data-name="Rectangle 70" class="cls-4" width="26.019" height="2.29" transform="translate(0 32.432)"/>
      </g>
      <g id="Group_334" data-name="Group 334" transform="translate(0 46.633)">
        <rect id="Rectangle_71" data-name="Rectangle 71" class="cls-4" width="51.947" height="2.29"/>
        <rect id="Rectangle_72" data-name="Rectangle 72" class="cls-4" width="51.947" height="2.29" transform="translate(0 4.031)"/>
        <rect id="Rectangle_73" data-name="Rectangle 73" class="cls-4" width="51.947" height="2.29" transform="translate(0 8.062)"/>
        <rect id="Rectangle_74" data-name="Rectangle 74" class="cls-4" width="51.947" height="2.29" transform="translate(0 12.185)"/>
        <rect id="Rectangle_75" data-name="Rectangle 75" class="cls-4" width="51.947" height="2.29" transform="translate(0 16.216)"/>
        <rect id="Rectangle_76" data-name="Rectangle 76" class="cls-4" width="51.947" height="2.29" transform="translate(0 20.247)"/>
        <rect id="Rectangle_77" data-name="Rectangle 77" class="cls-4" width="51.947" height="2.29" transform="translate(0 24.279)"/>
        <rect id="Rectangle_78" data-name="Rectangle 78" class="cls-4" width="51.947" height="2.29" transform="translate(0 28.401)"/>
        <rect id="Rectangle_79" data-name="Rectangle 79" class="cls-4" width="26.019" height="2.29" transform="translate(0 32.432)"/>
      </g>
    </g>
    <rect id="Rectangle_80" data-name="Rectangle 80" class="cls-2" width="6.688" height="57.994" transform="translate(74.76 47.916)"/>
    <rect id="Rectangle_81" data-name="Rectangle 81" class="cls-5" width="6.688" height="30.05" transform="translate(88.136 75.859)"/>
    <rect id="Rectangle_82" data-name="Rectangle 82" class="cls-3" width="6.688" height="41.594" transform="translate(81.448 64.315)"/>
    <rect id="Rectangle_83" data-name="Rectangle 83" class="cls-4" width="34.082" height="1.741" transform="translate(67.797 112.231)"/>
    <rect id="Rectangle_84" data-name="Rectangle 84" class="cls-2" width="10.078" height="41.136" transform="translate(115.254 64.865)"/>
    <rect id="Rectangle_85" data-name="Rectangle 85" class="cls-5" width="10.17" height="30.05" transform="translate(134.769 75.859)"/>
    <rect id="Rectangle_86" data-name="Rectangle 86" class="cls-3" width="10.078" height="49.84" transform="translate(125.057 56.161)"/>
    <rect id="Rectangle_87" data-name="Rectangle 87" class="cls-4" width="34.082" height="1.741" transform="translate(113.056 112.231)"/>
    <rect id="Rectangle_88" data-name="Rectangle 88" class="cls-2" width="15.208" height="41.136" transform="translate(152.726 64.865)"/>
    <rect id="Rectangle_89" data-name="Rectangle 89" class="cls-5" width="15.208" height="62.849" transform="translate(182.868 43.152)"/>
    <rect id="Rectangle_90" data-name="Rectangle 90" class="cls-3" width="15.208" height="49.84" transform="translate(167.843 56.161)"/>
    <rect id="Rectangle_91" data-name="Rectangle 91" class="cls-4" width="34.082" height="1.741" transform="translate(158.314 112.231)"/>
    <g id="Group_336" data-name="Group 336" transform="translate(94.915 120.202)">
      <rect id="Rectangle_92" data-name="Rectangle 92" class="cls-4" width="76.042" height="2.29"/>
      <rect id="Rectangle_93" data-name="Rectangle 93" class="cls-4" width="76.042" height="2.29" transform="translate(0 4.123)"/>
      <rect id="Rectangle_94" data-name="Rectangle 94" class="cls-4" width="76.042" height="2.29" transform="translate(0 8.154)"/>
      <rect id="Rectangle_95" data-name="Rectangle 95" class="cls-4" width="76.042" height="2.29" transform="translate(0 12.185)"/>
      <rect id="Rectangle_96" data-name="Rectangle 96" class="cls-4" width="76.042" height="2.29" transform="translate(0 16.216)"/>
      <rect id="Rectangle_97" data-name="Rectangle 97" class="cls-4" width="76.042" height="2.29" transform="translate(0 20.339)"/>
      <rect id="Rectangle_98" data-name="Rectangle 98" class="cls-4" width="76.042" height="2.29" transform="translate(0 24.37)"/>
    </g>
    <g id="Group_338" data-name="Group 338" transform="translate(66.331 154.283)">
      <path id="Path_4700" data-name="Path 4700" class="cls-6" d="M79.18,185.69A3.39,3.39,0,1,1,75.7,182.3,3.462,3.462,0,0,1,79.18,185.69Z" transform="translate(-72.4 -169.565)"/>
      <path id="Path_4701" data-name="Path 4701" class="cls-6" d="M143.18,185.29a3.39,3.39,0,1,1-3.481-3.39A3.461,3.461,0,0,1,143.18,185.29Z" transform="translate(-77.765 -169.532)"/>
      <g id="Group_337" data-name="Group 337" transform="translate(15.3)">
        <path id="Path_4702" data-name="Path 4702" class="cls-6" d="M106.507,168.4a16.866,16.866,0,1,0,17.407,16.858A17.113,17.113,0,0,0,106.507,168.4Zm1.191,25.286v2.2h-1.832v-2.2a10.659,10.659,0,0,1-6.688-2.565l1.466-1.557a8.4,8.4,0,0,0,5.222,2.29V185.9c-3.023-.641-6.047-1.557-6.047-4.489,0-2.565,2.565-4.306,6.047-4.489v-2.2H107.7v2.2a10.27,10.27,0,0,1,5.864,2.2l-1.466,1.466a8.065,8.065,0,0,0-4.306-1.924v5.314c3.023.733,6.23,1.649,6.23,4.856C113.928,191.121,112.188,193.411,107.7,193.686Z" transform="translate(-89.1 -168.4)"/>
        <path id="Path_4703" data-name="Path 4703" class="cls-6" d="M109.4,188v5.589c2.749-.275,3.756-1.649,3.756-2.84C113.065,189.1,111.416,188.458,109.4,188Z" transform="translate(-90.802 -170.043)"/>
        <path id="Path_4704" data-name="Path 4704" class="cls-6" d="M103.5,182.265c0,1.374,1.557,1.924,3.573,2.382V179.7C104.966,179.792,103.5,180.8,103.5,182.265Z" transform="translate(-90.307 -169.347)"/>
      </g>
    </g>
    <g id="Group_340" data-name="Group 340" transform="translate(62.3 150.435)">
      <path id="Path_4705" data-name="Path 4705" class="cls-6" d="M74.78,181.39A3.39,3.39,0,1,1,71.3,178,3.524,3.524,0,0,1,74.78,181.39Z" transform="translate(-68 -165.357)"/>
      <path id="Path_4706" data-name="Path 4706" class="cls-6" d="M138.78,181.09a3.39,3.39,0,1,1-3.481-3.39A3.382,3.382,0,0,1,138.78,181.09Z" transform="translate(-73.365 -165.332)"/>
      <g id="Group_339" data-name="Group 339" transform="translate(15.3)">
        <path id="Path_4707" data-name="Path 4707" class="cls-6" d="M102.107,164.2a16.866,16.866,0,1,0,17.407,16.858A17.113,17.113,0,0,0,102.107,164.2Zm1.1,25.286v2.2h-1.832v-2.2a10.659,10.659,0,0,1-6.688-2.565l1.466-1.557a8.4,8.4,0,0,0,5.222,2.29V181.7c-3.023-.641-6.047-1.557-6.047-4.489,0-2.565,2.565-4.306,6.047-4.489v-2.29h1.832v2.29a9.729,9.729,0,0,1,5.772,2.2l-1.466,1.466a8.065,8.065,0,0,0-4.306-1.924v5.314c3.023.733,6.23,1.649,6.23,4.856C109.528,186.921,107.788,189.212,103.207,189.486Z" transform="translate(-84.7 -164.2)"/>
        <path id="Path_4708" data-name="Path 4708" class="cls-6" d="M104.9,183.7v5.589c2.749-.275,3.756-1.649,3.756-2.84C108.656,184.891,107.007,184.25,104.9,183.7Z" transform="translate(-86.393 -165.835)"/>
        <path id="Path_4709" data-name="Path 4709" class="cls-6" d="M99.1,177.965c0,1.374,1.557,1.924,3.573,2.382V175.4C100.566,175.583,99.1,176.591,99.1,177.965Z" transform="translate(-85.907 -165.139)"/>
      </g>
    </g>
    <rect id="Rectangle_99" data-name="Rectangle 99" class="cls-2" width="110.399" height="54.146" transform="translate(37.38 138.25)"/>
    <path id="Path_4710" data-name="Path 4710" class="cls-1" d="M147.528,161.213c-5.68,0-8.429-3.115-8.429-7.513H53.346c-.092,4.214-2.84,7.146-8.246,7.238v33.9h.092c5.772,0,8.52,3.3,8.337,7.787h85.845c-.092-4.306,2.657-7.421,8.246-7.513l-.092-33.9Z" transform="translate(-3.781 -12.884)"/>
    <g id="Group_342" data-name="Group 342" transform="translate(60.284 148.42)">
      <path id="Path_4711" data-name="Path 4711" class="cls-5" d="M72.58,179.29A3.39,3.39,0,1,1,69.1,175.9,3.524,3.524,0,0,1,72.58,179.29Z" transform="translate(-65.8 -163.165)"/>
      <path id="Path_4712" data-name="Path 4712" class="cls-5" d="M136.58,178.99a3.39,3.39,0,1,1-3.481-3.39A3.382,3.382,0,0,1,136.58,178.99Z" transform="translate(-71.165 -163.14)"/>
      <g id="Group_341" data-name="Group 341" transform="translate(15.3)">
        <path id="Path_4713" data-name="Path 4713" class="cls-5" d="M99.907,162a16.866,16.866,0,1,0,17.407,16.858C117.315,169.6,109.527,162,99.907,162Zm1.1,25.378v2.2H99.174v-2.2a10.659,10.659,0,0,1-6.688-2.565l1.466-1.557a8.4,8.4,0,0,0,5.222,2.29v-5.955c-3.023-.641-6.047-1.557-6.047-4.489,0-2.565,2.565-4.306,6.047-4.489v-2.2h1.832v2.2a9.729,9.729,0,0,1,5.772,2.2l-1.466,1.466a8.065,8.065,0,0,0-4.306-1.924v5.314c3.023.733,6.23,1.649,6.23,4.856C107.328,184.813,105.588,187.1,101.007,187.378Z" transform="translate(-82.5 -162)"/>
        <path id="Path_4714" data-name="Path 4714" class="cls-5" d="M102.7,181.6v5.589c2.749-.275,3.756-1.649,3.756-2.84C106.456,182.791,104.807,182.15,102.7,181.6Z" transform="translate(-84.193 -163.643)"/>
        <path id="Path_4715" data-name="Path 4715" class="cls-5" d="M96.9,175.865c0,1.374,1.557,1.924,3.573,2.382V173.3C98.366,173.483,96.9,174.491,96.9,175.865Z" transform="translate(-83.707 -162.947)"/>
      </g>
    </g>
  </g>
</svg>
