<svg xmlns="http://www.w3.org/2000/svg" viewBox="2814 56 150 81.506">
  <defs>
    <style>
      .cls-1 {
        fill: #ea375d;
      }

      .cls-2 {
        fill: #fff;
      }
    </style>
  </defs>
  <g id="Group_4" data-name="Group 4" transform="translate(2814 56)">
    <path id="Path_18" data-name="Path 18" class="cls-1" d="M40.753,81.506a40.753,40.753,0,1,1,33.011-64.66l-2.446,1.765a37.74,37.74,0,1,0,0,44.259l2.446,1.765A40.907,40.907,0,0,1,40.753,81.506Z"/>
    <g id="Group_2" data-name="Group 2" transform="translate(17.325 28.598)">
      <path id="Path_19" data-name="Path 19" class="cls-1" d="M68.7,113.4h4.312l5.22,19.444L83.882,113.4h3.758l5.624,19.444,5.22-19.444H102.8L95.76,138.291H91.018l-5.245-18.183-5.3,18.183H75.736Z" transform="translate(-68.7 -113.4)"/>
      <path id="Path_20" data-name="Path 20" class="cls-1" d="M213.034,154.982a5.441,5.441,0,0,0,4.59-2.194l3.152,1.841a9,9,0,0,1-7.793,3.884c-5.876,0-9.684-4.01-9.684-9.356a9.068,9.068,0,0,1,9.381-9.356c5.3,0,8.927,4.262,8.927,9.381a10.611,10.611,0,0,1-.151,1.589H207.31C207.94,153.544,210.185,154.982,213.034,154.982Zm4.716-7.339a4.943,4.943,0,0,0-5.094-4.363,5.179,5.179,0,0,0-5.372,4.363Z" transform="translate(-169.356 -133.142)"/>
    </g>
    <g id="Group_3" data-name="Group 3" transform="translate(71.167 28.119)">
      <path id="Path_21" data-name="Path 21" class="cls-2" d="M282.2,131.221l3.531-2.068c.883,2.522,2.8,4.186,6.179,4.186,3.228,0,4.615-1.463,4.615-3.278,0-2.194-1.967-2.951-5.649-4.085-3.884-1.185-7.641-2.6-7.641-7.288,0-4.59,3.808-7.187,7.994-7.187a9.242,9.242,0,0,1,8.675,5.472l-3.455,1.992a5.342,5.342,0,0,0-5.22-3.48c-2.371,0-3.909,1.21-3.909,3.1,0,1.917,1.387,2.749,5.018,3.884,4.136,1.311,8.3,2.6,8.3,7.54,0,4.539-3.632,7.313-8.827,7.313C286.891,137.324,283.511,134.9,282.2,131.221Z" transform="translate(-282.2 -111.5)"/>
      <path id="Path_22" data-name="Path 22" class="cls-2" d="M367.012,130.475V139c0,2.27,1.488,2.244,4.413,2.093v3.455c-5.9.706-8.246-.933-8.246-5.548v-8.524H359.9v-3.707h3.278v-3.833l3.833-1.135v4.968h4.413v3.707Z" transform="translate(-340.305 -119.202)"/>
      <path id="Path_23" data-name="Path 23" class="cls-2" d="M431.714,140.179v17.779h-3.833v-2.572a7.316,7.316,0,0,1-6.229,3.026,9.37,9.37,0,0,1,0-18.712,7.407,7.407,0,0,1,6.229,2.976v-2.522h3.833Zm-3.858,8.877a5.624,5.624,0,1,0-5.624,5.7A5.508,5.508,0,0,0,427.855,149.056Z" transform="translate(-379.865 -132.588)"/>
      <path id="Path_24" data-name="Path 24" class="cls-2" d="M514.906,140.3v4.161c-2.522-.177-5.472.984-5.472,4.968v8.953H505.6V140.6h3.833v2.976A5.588,5.588,0,0,1,514.906,140.3Z" transform="translate(-449.262 -133.037)"/>
      <path id="Path_25" data-name="Path 25" class="cls-2" d="M556.212,130.475V139c0,2.27,1.488,2.244,4.413,2.093v3.455c-5.9.706-8.246-.933-8.246-5.548v-8.524H549.1v-3.707h3.278v-3.833l3.833-1.135v4.968h4.413v3.707Z" transform="translate(-481.792 -119.202)"/>
    </g>
  </g>
</svg>
